<?xml version="1.0" encoding="UTF-8" standalone="no"?>
<!DOCTYPE svg PUBLIC "-//W3C//DTD SVG 1.1//EN"
 "http://www.w3.org/Graphics/SVG/1.1/DTD/svg11.dtd">
<!-- Generated by graphviz version 7.1.0 (20230121.1956)
 -->
<!-- Title: Player Pages: 1 -->
<svg width="1535pt" height="1055pt"
 viewBox="0.00 0.00 1535.00 1055.00" xmlns="http://www.w3.org/2000/svg" xmlns:xlink="http://www.w3.org/1999/xlink">
<g id="graph0" class="graph" transform="scale(1 1) rotate(0) translate(4 1051)">
<title>Player</title>
<polygon fill="white" stroke="none" points="-4,4 -4,-1051 1531,-1051 1531,4 -4,4"/>
<!-- player.Player -->
<g id="node1" class="node">
<title>player.Player</title>
<polygon fill="none" stroke="black" points="766.5,-617.5 766.5,-1046.5 1245.5,-1046.5 1245.5,-617.5 766.5,-617.5"/>
<text text-anchor="start" x="988.5" y="-1031.3" font-family="Times New Roman,serif" font-size="14.00">Player</text>
<polyline fill="none" stroke="black" points="766.5,-1023.5 1245.5,-1023.5"/>
<text text-anchor="start" x="952.5" y="-1008.3" font-family="Times New Roman,serif" font-size="14.00">action_state : dict</text>
<text text-anchor="start" x="952.5" y="-993.3" font-family="Times New Roman,serif" font-size="14.00">clock</text>
<text text-anchor="start" x="952.5" y="-978.3" font-family="Times New Roman,serif" font-size="14.00">collision_sprites</text>
<text text-anchor="start" x="952.5" y="-963.3" font-family="Times New Roman,serif" font-size="14.00">director</text>
<text text-anchor="start" x="952.5" y="-948.3" font-family="Times New Roman,serif" font-size="14.00">health : int</text>
<text text-anchor="start" x="952.5" y="-933.3" font-family="Times New Roman,serif" font-size="14.00">health_ui</text>
<text text-anchor="start" x="952.5" y="-918.3" font-family="Times New Roman,serif" font-size="14.00">image</text>
<text text-anchor="start" x="952.5" y="-903.3" font-family="Times New Roman,serif" font-size="14.00">is_rewinding : bool</text>
<text text-anchor="start" x="952.5" y="-888.3" font-family="Times New Roman,serif" font-size="14.00">rect</text>
<text text-anchor="start" x="952.5" y="-873.3" font-family="Times New Roman,serif" font-size="14.00">running_speed : int</text>
<text text-anchor="start" x="952.5" y="-858.3" font-family="Times New Roman,serif" font-size="14.00">shoe_sound</text>
<text text-anchor="start" x="952.5" y="-843.3" font-family="Times New Roman,serif" font-size="14.00">speed : int</text>
<text text-anchor="start" x="952.5" y="-828.3" font-family="Times New Roman,serif" font-size="14.00">state : tuple</text>
<text text-anchor="start" x="952.5" y="-813.3" font-family="Times New Roman,serif" font-size="14.00">walk_sound</text>
<text text-anchor="start" x="952.5" y="-798.3" font-family="Times New Roman,serif" font-size="14.00">walking_speed : int</text>
<text text-anchor="start" x="952.5" y="-783.3" font-family="Times New Roman,serif" font-size="14.00">weapons : list</text>
<polyline fill="none" stroke="black" points="766.5,-775.5 1245.5,-775.5"/>
<text text-anchor="start" x="774.5" y="-760.3" font-family="Times New Roman,serif" font-size="14.00">__init__(collision_sprites, damageable_sprites, thrown_sprite_group, clock, scale)</text>
<text text-anchor="start" x="774.5" y="-745.3" font-family="Times New Roman,serif" font-size="14.00">add_drawing_sprite_group(sprite_group, ui_group)</text>
<text text-anchor="start" x="774.5" y="-730.3" font-family="Times New Roman,serif" font-size="14.00">add_slipper(amount)</text>
<text text-anchor="start" x="774.5" y="-715.3" font-family="Times New Roman,serif" font-size="14.00">apply_input()</text>
<text text-anchor="start" x="774.5" y="-700.3" font-family="Times New Roman,serif" font-size="14.00">handle_input(inputs: list[tuple[bool, str]])</text>
<text text-anchor="start" x="774.5" y="-685.3" font-family="Times New Roman,serif" font-size="14.00">heal(amount)</text>
<text text-anchor="start" x="774.5" y="-670.3" font-family="Times New Roman,serif" font-size="14.00">kill()</text>
<text text-anchor="start" x="774.5" y="-655.3" font-family="Times New Roman,serif" font-size="14.00">receive_damage(damage_amount)</text>
<text text-anchor="start" x="774.5" y="-640.3" font-family="Times New Roman,serif" font-size="14.00">update()</text>
<text text-anchor="start" x="774.5" y="-625.3" font-family="Times New Roman,serif" font-size="14.00">update_state(action)</text>
</g>
<!-- weapons.Weapon -->
<g id="node2" class="node">
<title>weapons.Weapon</title>
<polygon fill="none" stroke="black" points="145,-392.5 145,-489.5 545,-489.5 545,-392.5 145,-392.5"/>
<text text-anchor="start" x="321" y="-474.3" font-family="Times New Roman,serif" font-size="14.00">Weapon</text>
<polyline fill="none" stroke="black" points="145,-466.5 545,-466.5"/>
<text text-anchor="start" x="291" y="-451.3" font-family="Times New Roman,serif" font-size="14.00">attack_ready : bool</text>
<text text-anchor="start" x="291" y="-436.3" font-family="Times New Roman,serif" font-size="14.00">cooldown : int</text>
<polyline fill="none" stroke="black" points="145,-428.5 545,-428.5"/>
<text text-anchor="start" x="153" y="-414.3" font-family="Times New Roman,serif" font-size="14.00">__subclasshook__(subclass)</text>
<text text-anchor="start" x="153" y="-400.3" font-family="Times New Roman,serif" font-style="italic" font-size="14.00">attack</text>
<text text-anchor="start" x="188" y="-400.3" font-family="Times New Roman,serif" font-size="14.00">(orientation: tuple[int, int], damagable_group: pg.sprite.Group)</text>
</g>
<!-- stick.Stick -->
<g id="node3" class="node">
<title>stick.Stick</title>
<polygon fill="none" stroke="black" points="0,-30.5 0,-234.5 462,-234.5 462,-30.5 0,-30.5"/>
<text text-anchor="start" x="216.5" y="-219.3" font-family="Times New Roman,serif" font-size="14.00">Stick</text>
<polyline fill="none" stroke="black" points="0,-211.5 462,-211.5"/>
<text text-anchor="start" x="177" y="-196.3" font-family="Times New Roman,serif" font-size="14.00">attack_ready : bool</text>
<text text-anchor="start" x="177" y="-181.3" font-family="Times New Roman,serif" font-size="14.00">cooldown : int</text>
<text text-anchor="start" x="177" y="-166.3" font-family="Times New Roman,serif" font-size="14.00">damage : int</text>
<text text-anchor="start" x="177" y="-151.3" font-family="Times New Roman,serif" font-size="14.00">last_step</text>
<text text-anchor="start" x="177" y="-136.3" font-family="Times New Roman,serif" font-size="14.00">rect</text>
<text text-anchor="start" x="177" y="-121.3" font-family="Times New Roman,serif" font-size="14.00">rect_dim : tuple</text>
<text text-anchor="start" x="177" y="-106.3" font-family="Times New Roman,serif" font-size="14.00">sprite</text>
<polyline fill="none" stroke="black" points="0,-98.5 462,-98.5"/>
<text text-anchor="start" x="8" y="-83.3" font-family="Times New Roman,serif" font-size="14.00">__init__(player_pos: tuple[int, int])</text>
<text text-anchor="start" x="8" y="-68.3" font-family="Times New Roman,serif" font-size="14.00">attack(player_rect: pg.Rect, orientation: str, damagable_group: pg.sprite.Group)</text>
<text text-anchor="start" x="8" y="-53.3" font-family="Times New Roman,serif" font-size="14.00">draw_hitbox(screen)</text>
<text text-anchor="start" x="8" y="-38.3" font-family="Times New Roman,serif" font-size="14.00">update(player_pos: tuple[int, int])</text>
</g>
<!-- stick.Stick&#45;&gt;player.Player -->
<g id="edge6" class="edge">
<title>stick.Stick&#45;&gt;player.Player</title>
<path fill="none" stroke="black" d="M167.7,-234.11C115.08,-331.93 60.03,-480.13 136,-581 210.7,-680.19 524.7,-752.19 754.1,-792.76"/>
<polygon fill="black" stroke="black" points="753.96,-792.74 760.56,-789.84 765.78,-794.82 759.18,-797.72 753.96,-792.74"/>
</g>
<!-- stick.Stick&#45;&gt;weapons.Weapon -->
<g id="edge7" class="edge">
<title>stick.Stick&#45;&gt;weapons.Weapon</title>
<path fill="none" stroke="black" d="M268.49,-234.28C286.71,-283.29 307.97,-340.45 323.45,-382.06"/>
<polygon fill="none" stroke="black" points="320.16,-383.25 326.92,-391.4 326.72,-380.81 320.16,-383.25"/>
</g>
<!-- slipper.Slipper -->
<g id="node4" class="node">
<title>slipper.Slipper</title>
<polygon fill="none" stroke="black" points="565.5,-0.5 565.5,-264.5 880.5,-264.5 880.5,-0.5 565.5,-0.5"/>
<text text-anchor="start" x="703" y="-249.3" font-family="Times New Roman,serif" font-size="14.00">Slipper</text>
<polyline fill="none" stroke="black" points="565.5,-241.5 880.5,-241.5"/>
<text text-anchor="start" x="670" y="-226.3" font-family="Times New Roman,serif" font-size="14.00">cooldown : int</text>
<text text-anchor="start" x="670" y="-211.3" font-family="Times New Roman,serif" font-size="14.00">damage : int</text>
<text text-anchor="start" x="670" y="-196.3" font-family="Times New Roman,serif" font-size="14.00">direction</text>
<text text-anchor="start" x="670" y="-181.3" font-family="Times New Roman,serif" font-size="14.00">moving_speed : int</text>
<text text-anchor="start" x="670" y="-166.3" font-family="Times New Roman,serif" font-size="14.00">ready : bool</text>
<text text-anchor="start" x="670" y="-151.3" font-family="Times New Roman,serif" font-size="14.00">rect</text>
<text text-anchor="start" x="670" y="-136.3" font-family="Times New Roman,serif" font-size="14.00">rect_dim : tuple</text>
<text text-anchor="start" x="670" y="-121.3" font-family="Times New Roman,serif" font-size="14.00">sprite</text>
<text text-anchor="start" x="670" y="-106.3" font-family="Times New Roman,serif" font-size="14.00">sprite_handler</text>
<text text-anchor="start" x="670" y="-91.3" font-family="Times New Roman,serif" font-size="14.00">state : tuple</text>
<text text-anchor="start" x="670" y="-76.3" font-family="Times New Roman,serif" font-size="14.00">thrown_group</text>
<polyline fill="none" stroke="black" points="565.5,-68.5 880.5,-68.5"/>
<text text-anchor="start" x="573.5" y="-53.3" font-family="Times New Roman,serif" font-size="14.00">__init__(sprite_scale)</text>
<text text-anchor="start" x="573.5" y="-38.3" font-family="Times New Roman,serif" font-size="14.00">attack(player_rect: pg.Rect, orientation: tuple[int, int])</text>
<text text-anchor="start" x="573.5" y="-23.3" font-family="Times New Roman,serif" font-size="14.00">draw_hitbox(screen)</text>
<text text-anchor="start" x="573.5" y="-8.3" font-family="Times New Roman,serif" font-size="14.00">update(damagable_group: pg.sprite.Group)</text>
</g>
<!-- slipper.Slipper&#45;&gt;weapons.Weapon -->
<g id="edge3" class="edge">
<title>slipper.Slipper&#45;&gt;weapons.Weapon</title>
<path fill="none" stroke="black" d="M565.7,-261.04C512.15,-304.47 455.09,-350.73 412.41,-385.34"/>
<polygon fill="none" stroke="black" points="410.27,-382.57 404.71,-391.59 414.68,-388.01 410.27,-382.57"/>
</g>
<!-- slipper.WeaponPool -->
<g id="node5" class="node">
<title>slipper.WeaponPool</title>
<polygon fill="none" stroke="black" points="563.5,-316.5 563.5,-565.5 1052.5,-565.5 1052.5,-316.5 563.5,-316.5"/>
<text text-anchor="start" x="771" y="-550.3" font-family="Times New Roman,serif" font-size="14.00">WeaponPool</text>
<polyline fill="none" stroke="black" points="563.5,-542.5 1052.5,-542.5"/>
<text text-anchor="start" x="749" y="-527.3" font-family="Times New Roman,serif" font-size="14.00">active_weapons : list</text>
<text text-anchor="start" x="749" y="-512.3" font-family="Times New Roman,serif" font-size="14.00">ammo</text>
<text text-anchor="start" x="749" y="-497.3" font-family="Times New Roman,serif" font-size="14.00">ammo : int</text>
<text text-anchor="start" x="749" y="-482.3" font-family="Times New Roman,serif" font-size="14.00">cooldown</text>
<text text-anchor="start" x="749" y="-467.3" font-family="Times New Roman,serif" font-size="14.00">last_step</text>
<text text-anchor="start" x="749" y="-452.3" font-family="Times New Roman,serif" font-size="14.00">thrown_sprite_group</text>
<text text-anchor="start" x="749" y="-437.3" font-family="Times New Roman,serif" font-size="14.00">weapon_idx : int</text>
<text text-anchor="start" x="749" y="-422.3" font-family="Times New Roman,serif" font-size="14.00">weapon_pool : list</text>
<polyline fill="none" stroke="black" points="563.5,-414.5 1052.5,-414.5"/>
<text text-anchor="start" x="571.5" y="-399.3" font-family="Times New Roman,serif" font-size="14.00">__init__(WeaponClass, poolSize: int, cooldown, thrown_sprite_group, sprite_scale)</text>
<text text-anchor="start" x="571.5" y="-384.3" font-family="Times New Roman,serif" font-size="14.00">attack(player_rect: pg.Rect, orientation: tuple[int, int])</text>
<text text-anchor="start" x="571.5" y="-369.3" font-family="Times New Roman,serif" font-size="14.00">draw_hitboxes(screen)</text>
<text text-anchor="start" x="571.5" y="-354.3" font-family="Times New Roman,serif" font-size="14.00">get_ammo()</text>
<text text-anchor="start" x="571.5" y="-339.3" font-family="Times New Roman,serif" font-size="14.00">increase_pool(amount)</text>
<text text-anchor="start" x="571.5" y="-324.3" font-family="Times New Roman,serif" font-size="14.00">update(damagable_group: pg.sprite.Group)</text>
</g>
<!-- slipper.Slipper&#45;&gt;slipper.WeaponPool -->
<g id="edge5" class="edge">
<title>slipper.Slipper&#45;&gt;slipper.WeaponPool</title>
<path fill="none" stroke="black" d="M759.29,-264.37C762.99,-277.7 766.75,-291.26 770.46,-304.64"/>
<polygon fill="black" stroke="black" points="770.4,-304.43 775.86,-309.14 773.61,-315.99 768.15,-311.28 770.4,-304.43"/>
</g>
<!-- slipper.WeaponPool&#45;&gt;player.Player -->
<g id="edge4" class="edge">
<title>slipper.WeaponPool&#45;&gt;player.Player</title>
<path fill="none" stroke="black" d="M870.78,-565.35C877.53,-578.61 884.54,-592.37 891.66,-606.36"/>
<polygon fill="black" stroke="black" points="891.53,-606.11 897.82,-609.64 896.98,-616.81 890.69,-613.27 891.53,-606.11"/>
</g>
<!-- clock.Clock -->
<g id="node6" class="node">
<title>clock.Clock</title>
<polygon fill="none" stroke="black" points="1071,-301.5 1071,-580.5 1339,-580.5 1339,-301.5 1071,-301.5"/>
<text text-anchor="start" x="1188" y="-565.3" font-family="Times New Roman,serif" font-size="14.00">Clock</text>
<polyline fill="none" stroke="black" points="1071,-557.5 1339,-557.5"/>
<text text-anchor="start" x="1159.5" y="-542.3" font-family="Times New Roman,serif" font-size="14.00">clock_ui</text>
<text text-anchor="start" x="1159.5" y="-527.3" font-family="Times New Roman,serif" font-size="14.00">cooldown : int</text>
<text text-anchor="start" x="1159.5" y="-512.3" font-family="Times New Roman,serif" font-size="14.00">director</text>
<text text-anchor="start" x="1159.5" y="-497.3" font-family="Times New Roman,serif" font-size="14.00">last_rewind</text>
<text text-anchor="start" x="1159.5" y="-482.3" font-family="Times New Roman,serif" font-size="14.00">last_rewind</text>
<text text-anchor="start" x="1159.5" y="-467.3" font-family="Times New Roman,serif" font-size="14.00">rewinding</text>
<text text-anchor="start" x="1159.5" y="-452.3" font-family="Times New Roman,serif" font-size="14.00">rewinding : bool</text>
<text text-anchor="start" x="1159.5" y="-437.3" font-family="Times New Roman,serif" font-size="14.00">screen</text>
<text text-anchor="start" x="1159.5" y="-422.3" font-family="Times New Roman,serif" font-size="14.00">time_manager</text>
<polyline fill="none" stroke="black" points="1071,-414.5 1339,-414.5"/>
<text text-anchor="start" x="1079" y="-399.3" font-family="Times New Roman,serif" font-size="14.00">__init__(scale)</text>
<text text-anchor="start" x="1079" y="-384.3" font-family="Times New Roman,serif" font-size="14.00">draw_blur(screen)</text>
<text text-anchor="start" x="1079" y="-369.3" font-family="Times New Roman,serif" font-size="14.00">get_rewinding()</text>
<text text-anchor="start" x="1079" y="-354.3" font-family="Times New Roman,serif" font-size="14.00">go_back_in_time()</text>
<text text-anchor="start" x="1079" y="-339.3" font-family="Times New Roman,serif" font-size="14.00">set_rewinding(value)</text>
<text text-anchor="start" x="1079" y="-324.3" font-family="Times New Roman,serif" font-size="14.00">take_snapshot(entity, pos)</text>
<text text-anchor="start" x="1079" y="-309.3" font-family="Times New Roman,serif" font-size="14.00">update_screen_res(screen_res: tuple[int, int])</text>
</g>
<!-- clock.Clock&#45;&gt;player.Player -->
<g id="edge2" class="edge">
<title>clock.Clock&#45;&gt;player.Player</title>
<path fill="none" stroke="black" d="M1134.28,-580.24C1129.69,-589.22 1125,-598.38 1120.27,-607.62"/>
<polygon fill="none" stroke="black" points="1117.25,-605.84 1115.81,-616.34 1123.48,-609.03 1117.25,-605.84"/>
</g>
<!-- ui.PlayerHealthUI -->
<g id="node7" class="node">
<title>ui.PlayerHealthUI</title>
<polygon fill="none" stroke="black" points="1357,-384 1357,-498 1527,-498 1527,-384 1357,-384"/>
<text text-anchor="start" x="1399.5" y="-482.8" font-family="Times New Roman,serif" font-size="14.00">PlayerHealthUI</text>
<polyline fill="none" stroke="black" points="1357,-475 1527,-475"/>
<text text-anchor="start" x="1410" y="-459.8" font-family="Times New Roman,serif" font-size="14.00">image</text>
<text text-anchor="start" x="1410" y="-444.8" font-family="Times New Roman,serif" font-size="14.00">max_health</text>
<text text-anchor="start" x="1410" y="-429.8" font-family="Times New Roman,serif" font-size="14.00">rect</text>
<polyline fill="none" stroke="black" points="1357,-422 1527,-422"/>
<text text-anchor="start" x="1365" y="-406.8" font-family="Times New Roman,serif" font-size="14.00">__init__(max_health, scale)</text>
<text text-anchor="start" x="1365" y="-391.8" font-family="Times New Roman,serif" font-size="14.00">update(health_amount)</text>
</g>
<!-- ui.PlayerHealthUI&#45;&gt;player.Player -->
<g id="edge1" class="edge">
<title>ui.PlayerHealthUI&#45;&gt;player.Player</title>
<path fill="none" stroke="black" d="M1410.51,-497.71C1393.88,-524.52 1371.96,-556.15 1348,-581 1319.9,-610.15 1288.06,-638.33 1255.41,-664.6"/>
<polygon fill="black" stroke="black" points="1255.34,-664.65 1253.14,-671.52 1245.95,-672.13 1248.15,-665.26 1255.34,-664.65"/>
</g>
</g>
</svg>
