<?xml version="1.0" encoding="UTF-8" standalone="no"?>
<!DOCTYPE svg PUBLIC "-//W3C//DTD SVG 1.1//EN"
 "http://www.w3.org/Graphics/SVG/1.1/DTD/svg11.dtd">
<!-- Generated by graphviz version 7.1.0 (20230121.1956)
 -->
<!-- Title: classes Pages: 1 -->
<svg width="835pt" height="880pt"
 viewBox="0.00 0.00 835.00 880.00" xmlns="http://www.w3.org/2000/svg" xmlns:xlink="http://www.w3.org/1999/xlink">
<g id="graph0" class="graph" transform="scale(1 1) rotate(0) translate(4 876)">
<title>classes</title>
<polygon fill="white" stroke="none" points="-4,4 -4,-876 831,-876 831,4 -4,4"/>
<!-- audio.Audio -->
<g id="node1" class="node">
<title>audio.Audio</title>
<polygon fill="none" stroke="black" points="0,-0.5 0,-474.5 157,-474.5 157,-0.5 0,-0.5"/>
<text text-anchor="start" x="61" y="-459.3" font-family="Times New Roman,serif" font-size="14.00">Audio</text>
<polyline fill="none" stroke="black" points="0,-451.5 157,-451.5"/>
<text text-anchor="start" x="19" y="-436.3" font-family="Times New Roman,serif" font-size="14.00">channels : list</text>
<text text-anchor="start" x="19" y="-421.3" font-family="Times New Roman,serif" font-size="14.00">control : bool</text>
<text text-anchor="start" x="19" y="-406.3" font-family="Times New Roman,serif" font-size="14.00">controlRewind : bool</text>
<text text-anchor="start" x="19" y="-391.3" font-family="Times New Roman,serif" font-size="14.00">controlRewind : bool</text>
<text text-anchor="start" x="19" y="-376.3" font-family="Times New Roman,serif" font-size="14.00">currentChannel</text>
<text text-anchor="start" x="19" y="-361.3" font-family="Times New Roman,serif" font-size="14.00">currentSong</text>
<text text-anchor="start" x="19" y="-346.3" font-family="Times New Roman,serif" font-size="14.00">currentSong : str</text>
<text text-anchor="start" x="19" y="-331.3" font-family="Times New Roman,serif" font-size="14.00">invertPath : str</text>
<text text-anchor="start" x="19" y="-316.3" font-family="Times New Roman,serif" font-size="14.00">normalPath : str</text>
<text text-anchor="start" x="19" y="-301.3" font-family="Times New Roman,serif" font-size="14.00">p</text>
<text text-anchor="start" x="19" y="-286.3" font-family="Times New Roman,serif" font-size="14.00">positionOriginal : int</text>
<text text-anchor="start" x="19" y="-271.3" font-family="Times New Roman,serif" font-size="14.00">positionOriginal : int</text>
<text text-anchor="start" x="19" y="-256.3" font-family="Times New Roman,serif" font-size="14.00">songsDurations : list</text>
<polyline fill="none" stroke="black" points="0,-248.5 157,-248.5"/>
<text text-anchor="start" x="8" y="-233.3" font-family="Times New Roman,serif" font-size="14.00">__init__()</text>
<text text-anchor="start" x="8" y="-218.3" font-family="Times New Roman,serif" font-size="14.00">_getSongIndex()</text>
<text text-anchor="start" x="8" y="-203.3" font-family="Times New Roman,serif" font-size="14.00">change_track(track)</text>
<text text-anchor="start" x="8" y="-188.3" font-family="Times New Roman,serif" font-size="14.00">end_rewinded()</text>
<text text-anchor="start" x="8" y="-173.3" font-family="Times New Roman,serif" font-size="14.00">getVolume(type)</text>
<text text-anchor="start" x="8" y="-158.3" font-family="Times New Roman,serif" font-size="14.00">loadSound(track)</text>
<text text-anchor="start" x="8" y="-143.3" font-family="Times New Roman,serif" font-size="14.00">playAttackSound(sound)</text>
<text text-anchor="start" x="8" y="-128.3" font-family="Times New Roman,serif" font-size="14.00">playSound(sound, loop)</text>
<text text-anchor="start" x="8" y="-113.3" font-family="Times New Roman,serif" font-size="14.00">play_track()</text>
<text text-anchor="start" x="8" y="-98.3" font-family="Times New Roman,serif" font-size="14.00">setChannel(channel)</text>
<text text-anchor="start" x="8" y="-83.3" font-family="Times New Roman,serif" font-size="14.00">startMusic()</text>
<text text-anchor="start" x="8" y="-68.3" font-family="Times New Roman,serif" font-size="14.00">start_rewinded()</text>
<text text-anchor="start" x="8" y="-53.3" font-family="Times New Roman,serif" font-size="14.00">stopMusic()</text>
<text text-anchor="start" x="8" y="-38.3" font-family="Times New Roman,serif" font-size="14.00">stopSound(sound)</text>
<text text-anchor="start" x="8" y="-23.3" font-family="Times New Roman,serif" font-size="14.00">turnDownVolume(type)</text>
<text text-anchor="start" x="8" y="-8.3" font-family="Times New Roman,serif" font-size="14.00">turnUpVolume(type)</text>
</g>
<!-- director.Director -->
<g id="node3" class="node">
<title>director.Director</title>
<polygon fill="none" stroke="black" points="219,-526.5 219,-871.5 406,-871.5 406,-526.5 219,-526.5"/>
<text text-anchor="start" x="289.5" y="-856.3" font-family="Times New Roman,serif" font-size="14.00">Director</text>
<polyline fill="none" stroke="black" points="219,-848.5 406,-848.5"/>
<text text-anchor="start" x="259" y="-833.3" font-family="Times New Roman,serif" font-size="14.00">audio</text>
<text text-anchor="start" x="259" y="-818.3" font-family="Times New Roman,serif" font-size="14.00">clock</text>
<text text-anchor="start" x="259" y="-803.3" font-family="Times New Roman,serif" font-size="14.00">controller</text>
<text text-anchor="start" x="259" y="-788.3" font-family="Times New Roman,serif" font-size="14.00">director_stack : list</text>
<text text-anchor="start" x="259" y="-773.3" font-family="Times New Roman,serif" font-size="14.00">res_idx</text>
<text text-anchor="start" x="259" y="-758.3" font-family="Times New Roman,serif" font-size="14.00">res_idx : int</text>
<text text-anchor="start" x="259" y="-743.3" font-family="Times New Roman,serif" font-size="14.00">resolutions : list</text>
<text text-anchor="start" x="259" y="-728.3" font-family="Times New Roman,serif" font-size="14.00">run : bool</text>
<text text-anchor="start" x="259" y="-713.3" font-family="Times New Roman,serif" font-size="14.00">run : bool</text>
<text text-anchor="start" x="259" y="-698.3" font-family="Times New Roman,serif" font-size="14.00">scene_stack : list</text>
<text text-anchor="start" x="259" y="-683.3" font-family="Times New Roman,serif" font-size="14.00">screen</text>
<text text-anchor="start" x="259" y="-668.3" font-family="Times New Roman,serif" font-size="14.00">screen</text>
<polyline fill="none" stroke="black" points="219,-660.5 406,-660.5"/>
<text text-anchor="start" x="227" y="-646.3" font-family="Times New Roman,serif" font-size="14.00">__new__()</text>
<text text-anchor="start" x="227" y="-632.3" font-family="Times New Roman,serif" font-size="14.00">close()</text>
<text text-anchor="start" x="227" y="-618.3" font-family="Times New Roman,serif" font-size="14.00">dead_scene()</text>
<text text-anchor="start" x="227" y="-604.3" font-family="Times New Roman,serif" font-style="italic" font-size="14.00">draw_until_not_translucid</text>
<text text-anchor="start" x="382" y="-604.3" font-family="Times New Roman,serif" font-size="14.00">()</text>
<text text-anchor="start" x="227" y="-590.3" font-family="Times New Roman,serif" font-size="14.00">modify_screen_res(increment)</text>
<text text-anchor="start" x="227" y="-576.3" font-family="Times New Roman,serif" font-size="14.00">pop_scene()</text>
<text text-anchor="start" x="227" y="-562.3" font-family="Times New Roman,serif" font-size="14.00">pop_scene_without_load()</text>
<text text-anchor="start" x="227" y="-548.3" font-family="Times New Roman,serif" font-size="14.00">push_scene(stack_element)</text>
<text text-anchor="start" x="227" y="-534.3" font-family="Times New Roman,serif" font-size="14.00">running_loop()</text>
</g>
<!-- audio.Audio&#45;&gt;director.Director -->
<g id="edge2" class="edge">
<title>audio.Audio&#45;&gt;director.Director</title>
<path fill="none" stroke="black" d="M156.89,-455.24C160.03,-461.95 163.24,-468.55 166.5,-475 179.98,-501.68 195.96,-529.09 212.31,-555.17"/>
<polygon fill="black" stroke="black" points="212.18,-554.97 218.77,-557.9 218.6,-565.11 212.01,-562.18 212.18,-554.97"/>
<text text-anchor="middle" x="200" y="-496.8" font-family="Times New Roman,serif" font-size="14.00" fill="green">audio</text>
</g>
<!-- controller.ControllerInterface -->
<g id="node2" class="node">
<title>controller.ControllerInterface</title>
<polygon fill="none" stroke="black" points="550,-658 550,-740 745,-740 745,-658 550,-658"/>
<text text-anchor="start" x="594.5" y="-724.8" font-family="Times New Roman,serif" font-size="14.00">ControllerInterface</text>
<polyline fill="none" stroke="black" points="550,-717 745,-717"/>
<text text-anchor="start" x="616.5" y="-701.8" font-family="Times New Roman,serif" font-size="14.00">events : list</text>
<polyline fill="none" stroke="black" points="550,-694 745,-694"/>
<text text-anchor="start" x="558" y="-679.8" font-family="Times New Roman,serif" font-size="14.00">__subclasshook__(subclass)</text>
<text text-anchor="start" x="558" y="-665.8" font-family="Times New Roman,serif" font-style="italic" font-size="14.00">get_input</text>
<text text-anchor="start" x="613" y="-665.8" font-family="Times New Roman,serif" font-size="14.00">(): list[tuple[bool, str]]</text>
</g>
<!-- controller.KeyboardController -->
<g id="node4" class="node">
<title>controller.KeyboardController</title>
<polygon fill="none" stroke="black" points="468,-188 468,-287 827,-287 827,-188 468,-188"/>
<text text-anchor="start" x="591.5" y="-271.8" font-family="Times New Roman,serif" font-size="14.00">KeyboardController</text>
<polyline fill="none" stroke="black" points="468,-264 827,-264"/>
<text text-anchor="start" x="607.5" y="-248.8" font-family="Times New Roman,serif" font-size="14.00">key_dict : dict</text>
<polyline fill="none" stroke="black" points="468,-241 827,-241"/>
<text text-anchor="start" x="476" y="-225.8" font-family="Times New Roman,serif" font-size="14.00">__init__()</text>
<text text-anchor="start" x="476" y="-210.8" font-family="Times New Roman,serif" font-size="14.00">_get_val(index: int)</text>
<text text-anchor="start" x="476" y="-195.8" font-family="Times New Roman,serif" font-size="14.00">get_input(event_list: list[pg.event.Event]): list[tuple[bool, str]]</text>
</g>
<!-- controller.KeyboardController&#45;&gt;controller.ControllerInterface -->
<g id="edge1" class="edge">
<title>controller.KeyboardController&#45;&gt;controller.ControllerInterface</title>
<path fill="none" stroke="black" d="M647.5,-286.81C647.5,-374.13 647.5,-557.47 647.5,-646.84"/>
<polygon fill="none" stroke="black" points="644,-646.78 647.5,-656.78 651,-646.78 644,-646.78"/>
</g>
<!-- controller.KeyboardController&#45;&gt;director.Director -->
<g id="edge3" class="edge">
<title>controller.KeyboardController&#45;&gt;director.Director</title>
<path fill="none" stroke="black" d="M615.7,-286.88C579.58,-341.35 518.38,-432.15 462.5,-508 447.06,-528.96 430.31,-550.9 413.79,-572.12"/>
<polygon fill="black" stroke="black" points="413.9,-571.97 413.36,-579.16 406.52,-581.43 407.06,-574.24 413.9,-571.97"/>
<text text-anchor="middle" x="499.5" y="-496.8" font-family="Times New Roman,serif" font-size="14.00" fill="green">controller</text>
</g>
<!-- scene.SceneInterface -->
<g id="node5" class="node">
<title>scene.SceneInterface</title>
<polygon fill="none" stroke="black" points="175.5,-147.5 175.5,-327.5 449.5,-327.5 449.5,-147.5 175.5,-147.5"/>
<text text-anchor="start" x="271" y="-312.3" font-family="Times New Roman,serif" font-size="14.00">SceneInterface</text>
<polyline fill="none" stroke="black" points="175.5,-304.5 449.5,-304.5"/>
<polyline fill="none" stroke="black" points="175.5,-281.5 449.5,-281.5"/>
<text text-anchor="start" x="183.5" y="-267.3" font-family="Times New Roman,serif" font-size="14.00">__subclasshook__(subclass)</text>
<text text-anchor="start" x="183.5" y="-253.3" font-family="Times New Roman,serif" font-size="14.00">close_scene()</text>
<text text-anchor="start" x="183.5" y="-239.3" font-family="Times New Roman,serif" font-style="italic" font-size="14.00">draw</text>
<text text-anchor="start" x="214.5" y="-239.3" font-family="Times New Roman,serif" font-size="14.00">(screen: pg.display)</text>
<text text-anchor="start" x="183.5" y="-225.3" font-family="Times New Roman,serif" font-style="italic" font-size="14.00">get_player_data</text>
<text text-anchor="start" x="278.5" y="-225.3" font-family="Times New Roman,serif" font-size="14.00">()</text>
<text text-anchor="start" x="183.5" y="-211.3" font-family="Times New Roman,serif" font-style="italic" font-size="14.00">handle_events</text>
<text text-anchor="start" x="265.5" y="-211.3" font-family="Times New Roman,serif" font-size="14.00">(event_list: list[pg.event.Event])</text>
<text text-anchor="start" x="183.5" y="-197.3" font-family="Times New Roman,serif" font-style="italic" font-size="14.00">load_scene</text>
<text text-anchor="start" x="247.5" y="-197.3" font-family="Times New Roman,serif" font-size="14.00">()</text>
<text text-anchor="start" x="183.5" y="-183.3" font-family="Times New Roman,serif" font-style="italic" font-size="14.00">set_player_data</text>
<text text-anchor="start" x="276.5" y="-183.3" font-family="Times New Roman,serif" font-size="14.00">(data)</text>
<text text-anchor="start" x="183.5" y="-169.3" font-family="Times New Roman,serif" font-style="italic" font-size="14.00">update</text>
<text text-anchor="start" x="223.5" y="-169.3" font-family="Times New Roman,serif" font-size="14.00">()</text>
<text text-anchor="start" x="183.5" y="-155.3" font-family="Times New Roman,serif" font-style="italic" font-size="14.00">update_screen_res</text>
<text text-anchor="start" x="291.5" y="-155.3" font-family="Times New Roman,serif" font-size="14.00">()</text>
</g>
<!-- scene.SceneInterface&#45;&gt;director.Director -->
<g id="edge4" class="edge">
<title>scene.SceneInterface&#45;&gt;director.Director</title>
<path fill="none" stroke="black" stroke-dasharray="5,2" d="M312.5,-327.37C312.5,-381.09 312.5,-451.56 312.5,-516.61"/>
<polygon fill="black" stroke="black" points="312.5,-526.58 308,-516.58 312.5,-521.58 312.5,-516.58 312.5,-516.58 312.5,-516.58 312.5,-521.58 317,-516.58 312.5,-526.58 312.5,-526.58"/>
<text text-anchor="middle" x="385.5" y="-496.8" font-family="Times New Roman,serif" font-size="14.00">current_scene_stack_item</text>
</g>
</g>
</svg>
