<?xml version="1.0" encoding="UTF-8" standalone="no"?>
<!DOCTYPE svg PUBLIC "-//W3C//DTD SVG 1.1//EN"
 "http://www.w3.org/Graphics/SVG/1.1/DTD/svg11.dtd">
<!-- Generated by graphviz version 7.1.0 (20230121.1956)
 -->
<!-- Title: classes Pages: 1 -->
<svg width="835pt" height="881pt"
 viewBox="0.00 0.00 835.00 881.00" xmlns="http://www.w3.org/2000/svg" xmlns:xlink="http://www.w3.org/1999/xlink">
<g id="graph0" class="graph" transform="scale(1 1) rotate(0) translate(4 877)">
<title>classes</title>
<polygon fill="white" stroke="none" points="-4,4 -4,-877 831,-877 831,4 -4,4"/>
<!-- audio.Audio -->
<g id="node1" class="node">
<title>audio.Audio</title>
<polygon fill="none" stroke="black" points="0,-0.5 0,-474.5 157,-474.5 157,-0.5 0,-0.5"/>
<text text-anchor="start" x="61" y="-459.3" font-family="Times New Roman,serif" font-size="14.00">Audio</text>
<polyline fill="none" stroke="black" points="0,-451.5 157,-451.5"/>
<text text-anchor="start" x="19" y="-436.3" font-family="Times New Roman,serif" font-size="14.00">channels : list</text>
<text text-anchor="start" x="19" y="-421.3" font-family="Times New Roman,serif" font-size="14.00">control : bool</text>
<text text-anchor="start" x="19" y="-406.3" font-family="Times New Roman,serif" font-size="14.00">controlRewind : bool</text>
<text text-anchor="start" x="19" y="-391.3" font-family="Times New Roman,serif" font-size="14.00">controlRewind : bool</text>
<text text-anchor="start" x="19" y="-376.3" font-family="Times New Roman,serif" font-size="14.00">currentChannel</text>
<text text-anchor="start" x="19" y="-361.3" font-family="Times New Roman,serif" font-size="14.00">currentSong</text>
<text text-anchor="start" x="19" y="-346.3" font-family="Times New Roman,serif" font-size="14.00">currentSong : str</text>
<text text-anchor="start" x="19" y="-331.3" font-family="Times New Roman,serif" font-size="14.00">invertPath : str</text>
<text text-anchor="start" x="19" y="-316.3" font-family="Times New Roman,serif" font-size="14.00">normalPath : str</text>
<text text-anchor="start" x="19" y="-301.3" font-family="Times New Roman,serif" font-size="14.00">p</text>
<text text-anchor="start" x="19" y="-286.3" font-family="Times New Roman,serif" font-size="14.00">positionOriginal : int</text>
<text text-anchor="start" x="19" y="-271.3" font-family="Times New Roman,serif" font-size="14.00">positionOriginal : int</text>
<text text-anchor="start" x="19" y="-256.3" font-family="Times New Roman,serif" font-size="14.00">songsDurations : list</text>
<polyline fill="none" stroke="black" points="0,-248.5 157,-248.5"/>
<text text-anchor="start" x="8" y="-233.3" font-family="Times New Roman,serif" font-size="14.00">__init__()</text>
<text text-anchor="start" x="8" y="-218.3" font-family="Times New Roman,serif" font-size="14.00">_getSongIndex()</text>
<text text-anchor="start" x="8" y="-203.3" font-family="Times New Roman,serif" font-size="14.00">change_track(track)</text>
<text text-anchor="start" x="8" y="-188.3" font-family="Times New Roman,serif" font-size="14.00">end_rewinded()</text>
<text text-anchor="start" x="8" y="-173.3" font-family="Times New Roman,serif" font-size="14.00">getVolume(type)</text>
<text text-anchor="start" x="8" y="-158.3" font-family="Times New Roman,serif" font-size="14.00">loadSound(track)</text>
<text text-anchor="start" x="8" y="-143.3" font-family="Times New Roman,serif" font-size="14.00">playAttackSound(sound)</text>
<text text-anchor="start" x="8" y="-128.3" font-family="Times New Roman,serif" font-size="14.00">playSound(sound, loop)</text>
<text text-anchor="start" x="8" y="-113.3" font-family="Times New Roman,serif" font-size="14.00">play_track()</text>
<text text-anchor="start" x="8" y="-98.3" font-family="Times New Roman,serif" font-size="14.00">setChannel(channel)</text>
<text text-anchor="start" x="8" y="-83.3" font-family="Times New Roman,serif" font-size="14.00">startMusic()</text>
<text text-anchor="start" x="8" y="-68.3" font-family="Times New Roman,serif" font-size="14.00">start_rewinded()</text>
<text text-anchor="start" x="8" y="-53.3" font-family="Times New Roman,serif" font-size="14.00">stopMusic()</text>
<text text-anchor="start" x="8" y="-38.3" font-family="Times New Roman,serif" font-size="14.00">stopSound(sound)</text>
<text text-anchor="start" x="8" y="-23.3" font-family="Times New Roman,serif" font-size="14.00">turnDownVolume(type)</text>
<text text-anchor="start" x="8" y="-8.3" font-family="Times New Roman,serif" font-size="14.00">turnUpVolume(type)</text>
</g>
<!-- director.Director -->
<g id="node3" class="node">
<title>director.Director</title>
<polygon fill="none" stroke="black" points="185,-526.5 185,-872.5 440,-872.5 440,-526.5 185,-526.5"/>
<text text-anchor="start" x="289.5" y="-857.3" font-family="Times New Roman,serif" font-size="14.00">Director</text>
<polyline fill="none" stroke="black" points="185,-849.5 440,-849.5"/>
<text text-anchor="start" x="193" y="-834.3" font-family="Times New Roman,serif" font-size="14.00">audio</text>
<text text-anchor="start" x="193" y="-819.3" font-family="Times New Roman,serif" font-size="14.00">clock</text>
<text text-anchor="start" x="193" y="-804.3" font-family="Times New Roman,serif" font-size="14.00">controller</text>
<text text-anchor="start" x="193" y="-789.3" font-family="Times New Roman,serif" font-size="14.00">current_scene_stack_item : SceneInterface</text>
<text text-anchor="start" x="193" y="-774.3" font-family="Times New Roman,serif" font-size="14.00">director_stack : list</text>
<text text-anchor="start" x="193" y="-759.3" font-family="Times New Roman,serif" font-size="14.00">res_idx</text>
<text text-anchor="start" x="193" y="-744.3" font-family="Times New Roman,serif" font-size="14.00">res_idx : int</text>
<text text-anchor="start" x="193" y="-729.3" font-family="Times New Roman,serif" font-size="14.00">resolutions : list</text>
<text text-anchor="start" x="193" y="-714.3" font-family="Times New Roman,serif" font-size="14.00">run : bool</text>
<text text-anchor="start" x="193" y="-699.3" font-family="Times New Roman,serif" font-size="14.00">run : bool</text>
<text text-anchor="start" x="193" y="-684.3" font-family="Times New Roman,serif" font-size="14.00">scene_stack : list</text>
<text text-anchor="start" x="193" y="-669.3" font-family="Times New Roman,serif" font-size="14.00">screen</text>
<text text-anchor="start" x="193" y="-654.3" font-family="Times New Roman,serif" font-size="14.00">screen</text>
<polyline fill="none" stroke="black" points="185,-646.5 440,-646.5"/>
<text text-anchor="start" x="227" y="-632.3" font-family="Times New Roman,serif" font-size="14.00">__new__()</text>
<text text-anchor="start" x="227" y="-618.3" font-family="Times New Roman,serif" font-size="14.00">close()</text>
<text text-anchor="start" x="227" y="-604.3" font-family="Times New Roman,serif" font-style="italic" font-size="14.00">draw_until_not_translucid</text>
<text text-anchor="start" x="382" y="-604.3" font-family="Times New Roman,serif" font-size="14.00">()</text>
<text text-anchor="start" x="227" y="-590.3" font-family="Times New Roman,serif" font-size="14.00">modify_screen_res(increment)</text>
<text text-anchor="start" x="227" y="-576.3" font-family="Times New Roman,serif" font-size="14.00">pop_scene()</text>
<text text-anchor="start" x="227" y="-562.3" font-family="Times New Roman,serif" font-size="14.00">pop_scene_without_load()</text>
<text text-anchor="start" x="227" y="-548.3" font-family="Times New Roman,serif" font-size="14.00">push_scene(stack_element)</text>
<text text-anchor="start" x="227" y="-534.3" font-family="Times New Roman,serif" font-size="14.00">running_loop()</text>
</g>
<!-- audio.Audio&#45;&gt;director.Director -->
<g id="edge2" class="edge">
<title>audio.Audio&#45;&gt;director.Director</title>
<path fill="none" stroke="black" d="M156.9,-455.24C160.04,-461.94 163.24,-468.55 166.5,-475 173.23,-488.33 180.58,-501.85 188.29,-515.3"/>
<polygon fill="black" stroke="black" points="188.35,-515.42 194.83,-518.59 194.38,-525.79 187.91,-522.61 188.35,-515.42"/>
<text text-anchor="middle" x="200" y="-496.8" font-family="Times New Roman,serif" font-size="14.00">audio</text>
</g>
<!-- controller.ControllerInterface -->
<g id="node2" class="node">
<title>controller.ControllerInterface</title>
<polygon fill="none" stroke="black" points="550,-658.5 550,-740.5 745,-740.5 745,-658.5 550,-658.5"/>
<text text-anchor="start" x="594.5" y="-725.3" font-family="Times New Roman,serif" font-size="14.00">ControllerInterface</text>
<polyline fill="none" stroke="black" points="550,-717.5 745,-717.5"/>
<text text-anchor="start" x="616.5" y="-702.3" font-family="Times New Roman,serif" font-size="14.00">events : list</text>
<polyline fill="none" stroke="black" points="550,-694.5 745,-694.5"/>
<text text-anchor="start" x="558" y="-680.3" font-family="Times New Roman,serif" font-size="14.00">__subclasshook__(subclass)</text>
<text text-anchor="start" x="558" y="-666.3" font-family="Times New Roman,serif" font-style="italic" font-size="14.00">get_input</text>
<text text-anchor="start" x="613" y="-666.3" font-family="Times New Roman,serif" font-size="14.00">(): list[tuple[bool, str]]</text>
</g>
<!-- controller.KeyboardController -->
<g id="node4" class="node">
<title>controller.KeyboardController</title>
<polygon fill="none" stroke="black" points="468,-188 468,-287 827,-287 827,-188 468,-188"/>
<text text-anchor="start" x="591.5" y="-271.8" font-family="Times New Roman,serif" font-size="14.00">KeyboardController</text>
<polyline fill="none" stroke="black" points="468,-264 827,-264"/>
<text text-anchor="start" x="607.5" y="-248.8" font-family="Times New Roman,serif" font-size="14.00">key_dict : dict</text>
<polyline fill="none" stroke="black" points="468,-241 827,-241"/>
<text text-anchor="start" x="476" y="-225.8" font-family="Times New Roman,serif" font-size="14.00">__init__()</text>
<text text-anchor="start" x="476" y="-210.8" font-family="Times New Roman,serif" font-size="14.00">_get_val(index: int)</text>
<text text-anchor="start" x="476" y="-195.8" font-family="Times New Roman,serif" font-size="14.00">get_input(event_list: list[pg.event.Event]): list[tuple[bool, str]]</text>
</g>
<!-- controller.KeyboardController&#45;&gt;controller.ControllerInterface -->
<g id="edge1" class="edge">
<title>controller.KeyboardController&#45;&gt;controller.ControllerInterface</title>
<path fill="none" stroke="black" d="M647.5,-286.86C647.5,-374.28 647.5,-557.82 647.5,-647.29"/>
<polygon fill="none" stroke="black" points="644,-647.24 647.5,-657.24 651,-647.24 644,-647.24"/>
</g>
<!-- controller.KeyboardController&#45;&gt;director.Director -->
<g id="edge3" class="edge">
<title>controller.KeyboardController&#45;&gt;director.Director</title>
<path fill="none" stroke="black" d="M615.68,-286.87C579.54,-341.33 518.33,-432.12 462.5,-508 457.6,-514.66 452.56,-521.43 447.45,-528.23"/>
<polygon fill="black" stroke="black" points="447.67,-527.94 447.25,-535.14 440.44,-537.52 440.86,-530.32 447.67,-527.94"/>
<text text-anchor="middle" x="499.5" y="-496.8" font-family="Times New Roman,serif" font-size="14.00">controller</text>
</g>
<!-- scene.SceneInterface -->
<g id="node5" class="node">
<title>scene.SceneInterface</title>
<polygon fill="none" stroke="black" points="175.5,-147.5 175.5,-327.5 449.5,-327.5 449.5,-147.5 175.5,-147.5"/>
<text text-anchor="start" x="271" y="-312.3" font-family="Times New Roman,serif" font-size="14.00">SceneInterface</text>
<polyline fill="none" stroke="black" points="175.5,-304.5 449.5,-304.5"/>
<polyline fill="none" stroke="black" points="175.5,-281.5 449.5,-281.5"/>
<text text-anchor="start" x="183.5" y="-267.3" font-family="Times New Roman,serif" font-size="14.00">__subclasshook__(subclass)</text>
<text text-anchor="start" x="183.5" y="-253.3" font-family="Times New Roman,serif" font-size="14.00">close_scene()</text>
<text text-anchor="start" x="183.5" y="-239.3" font-family="Times New Roman,serif" font-style="italic" font-size="14.00">draw</text>
<text text-anchor="start" x="214.5" y="-239.3" font-family="Times New Roman,serif" font-size="14.00">(screen: pg.display)</text>
<text text-anchor="start" x="183.5" y="-225.3" font-family="Times New Roman,serif" font-style="italic" font-size="14.00">get_player_data</text>
<text text-anchor="start" x="278.5" y="-225.3" font-family="Times New Roman,serif" font-size="14.00">()</text>
<text text-anchor="start" x="183.5" y="-211.3" font-family="Times New Roman,serif" font-style="italic" font-size="14.00">handle_events</text>
<text text-anchor="start" x="265.5" y="-211.3" font-family="Times New Roman,serif" font-size="14.00">(event_list: list[pg.event.Event])</text>
<text text-anchor="start" x="183.5" y="-197.3" font-family="Times New Roman,serif" font-style="italic" font-size="14.00">load_scene</text>
<text text-anchor="start" x="247.5" y="-197.3" font-family="Times New Roman,serif" font-size="14.00">()</text>
<text text-anchor="start" x="183.5" y="-183.3" font-family="Times New Roman,serif" font-style="italic" font-size="14.00">set_player_data</text>
<text text-anchor="start" x="276.5" y="-183.3" font-family="Times New Roman,serif" font-size="14.00">(data)</text>
<text text-anchor="start" x="183.5" y="-169.3" font-family="Times New Roman,serif" font-style="italic" font-size="14.00">update</text>
<text text-anchor="start" x="223.5" y="-169.3" font-family="Times New Roman,serif" font-size="14.00">()</text>
<text text-anchor="start" x="183.5" y="-155.3" font-family="Times New Roman,serif" font-style="italic" font-size="14.00">update_screen_res</text>
<text text-anchor="start" x="291.5" y="-155.3" font-family="Times New Roman,serif" font-size="14.00">()</text>
</g>
<!-- scene.SceneInterface&#45;&gt;director.Director -->
<g id="edge4" class="edge">
<title>scene.SceneInterface&#45;&gt;director.Director</title>
<path fill="none" stroke="black" stroke-dasharray="5,2" d="M312.5,-327.47C312.5,-381.25 312.5,-451.79 312.5,-516.91"/>
<polygon fill="black" stroke="black" points="312.5,-526.89 308,-516.89 312.5,-521.89 312.5,-516.89 312.5,-516.89 312.5,-516.89 312.5,-521.89 317,-516.89 312.5,-526.89 312.5,-526.89"/>
<text text-anchor="middle" x="385.5" y="-496.8" font-family="Times New Roman,serif" font-size="14.00">current_scene_stack_item</text>
</g>
</g>
</svg>
