<?xml version="1.0" encoding="UTF-8" standalone="no"?>
<!DOCTYPE svg PUBLIC "-//W3C//DTD SVG 1.1//EN"
 "http://www.w3.org/Graphics/SVG/1.1/DTD/svg11.dtd">
<!-- Generated by graphviz version 7.1.0 (20230121.1956)
 -->
<!-- Title: Behavior Pages: 1 -->
<svg width="1753pt" height="785pt"
 viewBox="0.00 0.00 1753.00 785.00" xmlns="http://www.w3.org/2000/svg" xmlns:xlink="http://www.w3.org/1999/xlink">
<g id="graph0" class="graph" transform="scale(1 1) rotate(0) translate(4 781)">
<title>Behavior</title>
<polygon fill="white" stroke="none" points="-4,4 -4,-781 1749,-781 1749,4 -4,4"/>
<!-- behavior.Behavior -->
<g id="node1" class="node">
<title>behavior.Behavior</title>
<polygon fill="none" stroke="black" points="842.5,-279 842.5,-393 1142.5,-393 1142.5,-279 842.5,-279"/>
<text text-anchor="start" x="967.5" y="-377.8" font-family="Times New Roman,serif" font-size="14.00">Behavior</text>
<polyline fill="none" stroke="black" points="842.5,-370 1142.5,-370"/>
<text text-anchor="start" x="974" y="-354.8" font-family="Times New Roman,serif" font-size="14.00">enemy</text>
<polyline fill="none" stroke="black" points="842.5,-347 1142.5,-347"/>
<text text-anchor="start" x="850.5" y="-331.8" font-family="Times New Roman,serif" font-size="14.00">__init__(enemy)</text>
<text text-anchor="start" x="850.5" y="-316.8" font-family="Times New Roman,serif" font-size="14.00">attack(player_pos, orientation)</text>
<text text-anchor="start" x="850.5" y="-301.8" font-family="Times New Roman,serif" font-size="14.00">get_goal(player_pos: Tuple[int, int]): Tuple[int, int]</text>
<text text-anchor="start" x="850.5" y="-286.8" font-family="Times New Roman,serif" font-size="14.00">get_orientation(x_dist, y_dist)</text>
</g>
<!-- enemy.Enemy -->
<g id="node5" class="node">
<title>enemy.Enemy</title>
<polygon fill="none" stroke="black" points="566.5,-467.5 566.5,-776.5 1048.5,-776.5 1048.5,-467.5 566.5,-467.5"/>
<text text-anchor="start" x="768" y="-761.3" font-family="Times New Roman,serif" font-size="14.00">enemy.Enemy</text>
<polyline fill="none" stroke="black" points="566.5,-753.5 1048.5,-753.5"/>
<text text-anchor="start" x="750.5" y="-738.3" font-family="Times New Roman,serif" font-size="14.00">behavior</text>
<text text-anchor="start" x="750.5" y="-723.3" font-family="Times New Roman,serif" font-size="14.00">collision_sprites</text>
<text text-anchor="start" x="750.5" y="-708.3" font-family="Times New Roman,serif" font-size="14.00">direction</text>
<text text-anchor="start" x="750.5" y="-693.3" font-family="Times New Roman,serif" font-size="14.00">goal : NoneType</text>
<text text-anchor="start" x="750.5" y="-678.3" font-family="Times New Roman,serif" font-size="14.00">goal_tick_rate : int</text>
<text text-anchor="start" x="750.5" y="-663.3" font-family="Times New Roman,serif" font-size="14.00">health : int</text>
<text text-anchor="start" x="750.5" y="-648.3" font-family="Times New Roman,serif" font-size="14.00">image</text>
<text text-anchor="start" x="750.5" y="-633.3" font-family="Times New Roman,serif" font-size="14.00">last_tick : int</text>
<text text-anchor="start" x="750.5" y="-618.3" font-family="Times New Roman,serif" font-size="14.00">map</text>
<text text-anchor="start" x="750.5" y="-603.3" font-family="Times New Roman,serif" font-size="14.00">rect</text>
<text text-anchor="start" x="750.5" y="-588.3" font-family="Times New Roman,serif" font-size="14.00">spawn_pos</text>
<text text-anchor="start" x="750.5" y="-573.3" font-family="Times New Roman,serif" font-size="14.00">walking_speed : int</text>
<text text-anchor="start" x="750.5" y="-558.3" font-family="Times New Roman,serif" font-size="14.00">weapon : NoneType</text>
<polyline fill="none" stroke="black" points="566.5,-550.5 1048.5,-550.5"/>
<text text-anchor="start" x="574.5" y="-535.3" font-family="Times New Roman,serif" font-size="14.00">__init__(collision_sprites, damageable_sprites, sprite_path, entity_rect, map, scale)</text>
<text text-anchor="start" x="574.5" y="-520.3" font-family="Times New Roman,serif" font-size="14.00">attack()</text>
<text text-anchor="start" x="574.5" y="-505.3" font-family="Times New Roman,serif" font-size="14.00">move()</text>
<text text-anchor="start" x="574.5" y="-490.3" font-family="Times New Roman,serif" font-size="14.00">set_goal(goal)</text>
<text text-anchor="start" x="574.5" y="-475.3" font-family="Times New Roman,serif" font-size="14.00">update(player_pos, clock)</text>
</g>
<!-- behavior.Behavior&#45;&gt;enemy.Enemy -->
<g id="edge7" class="edge">
<title>behavior.Behavior&#45;&gt;enemy.Enemy</title>
<path fill="none" stroke="black" d="M956.17,-392.77C943.81,-411.75 929.29,-434.04 914.25,-457.12"/>
<polygon fill="black" stroke="black" points="914.36,-456.96 914.43,-464.17 907.81,-467.02 907.73,-459.81 914.36,-456.96"/>
</g>
<!-- behavior.ChaseBehavior -->
<g id="node2" class="node">
<title>behavior.ChaseBehavior</title>
<polygon fill="none" stroke="black" points="453.5,-45.5 453.5,-159.5 753.5,-159.5 753.5,-45.5 453.5,-45.5"/>
<text text-anchor="start" x="561" y="-144.3" font-family="Times New Roman,serif" font-size="14.00">ChaseBehavior</text>
<polyline fill="none" stroke="black" points="453.5,-136.5 753.5,-136.5"/>
<text text-anchor="start" x="555" y="-121.3" font-family="Times New Roman,serif" font-size="14.00">attack_range : int</text>
<text text-anchor="start" x="555" y="-106.3" font-family="Times New Roman,serif" font-size="14.00">follow_range : int</text>
<polyline fill="none" stroke="black" points="453.5,-98.5 753.5,-98.5"/>
<text text-anchor="start" x="461.5" y="-83.3" font-family="Times New Roman,serif" font-size="14.00">__init__(enemy, attack_range, follow_range)</text>
<text text-anchor="start" x="461.5" y="-68.3" font-family="Times New Roman,serif" font-size="14.00">chase(player_pos, orientation)</text>
<text text-anchor="start" x="461.5" y="-53.3" font-family="Times New Roman,serif" font-size="14.00">get_goal(player_pos: Tuple[int, int]): Tuple[int, int]</text>
</g>
<!-- behavior.ChaseBehavior&#45;&gt;behavior.Behavior -->
<g id="edge1" class="edge">
<title>behavior.ChaseBehavior&#45;&gt;behavior.Behavior</title>
<path fill="none" stroke="black" d="M687.59,-159.24C711.52,-174.53 737.8,-190.8 762.5,-205 792.83,-222.43 801.85,-224.13 832.5,-241 851.13,-251.25 870.78,-262.46 889.7,-273.46"/>
<polygon fill="none" stroke="black" points="887.81,-276.41 898.21,-278.42 891.34,-270.36 887.81,-276.41"/>
</g>
<!-- enemies.Ghost -->
<g id="node6" class="node">
<title>enemies.Ghost</title>
<polygon fill="none" stroke="black" points="0,-241.5 0,-430.5 403,-430.5 403,-241.5 0,-241.5"/>
<text text-anchor="start" x="184" y="-415.3" font-family="Times New Roman,serif" font-size="14.00">Ghost</text>
<polyline fill="none" stroke="black" points="0,-407.5 403,-407.5"/>
<text text-anchor="start" x="149.5" y="-392.3" font-family="Times New Roman,serif" font-size="14.00">attack_range : int</text>
<text text-anchor="start" x="149.5" y="-377.3" font-family="Times New Roman,serif" font-size="14.00">behavior</text>
<text text-anchor="start" x="149.5" y="-362.3" font-family="Times New Roman,serif" font-size="14.00">health : int</text>
<text text-anchor="start" x="149.5" y="-347.3" font-family="Times New Roman,serif" font-size="14.00">speed : float</text>
<text text-anchor="start" x="149.5" y="-332.3" font-family="Times New Roman,serif" font-size="14.00">teleport_index : int</text>
<text text-anchor="start" x="149.5" y="-317.3" font-family="Times New Roman,serif" font-size="14.00">teleported : bool</text>
<text text-anchor="start" x="149.5" y="-302.3" font-family="Times New Roman,serif" font-size="14.00">weapon</text>
<polyline fill="none" stroke="black" points="0,-294.5 403,-294.5"/>
<text text-anchor="start" x="8" y="-279.3" font-family="Times New Roman,serif" font-size="14.00">__init__(collision_sprites, damageable_sprites: List, pos, map, scale)</text>
<text text-anchor="start" x="8" y="-264.3" font-family="Times New Roman,serif" font-size="14.00">attack()</text>
<text text-anchor="start" x="8" y="-249.3" font-family="Times New Roman,serif" font-size="14.00">update(player_pos, clock)</text>
</g>
<!-- behavior.ChaseBehavior&#45;&gt;enemies.Ghost -->
<g id="edge9" class="edge">
<title>behavior.ChaseBehavior&#45;&gt;enemies.Ghost</title>
<path fill="none" stroke="black" d="M506.44,-159.39C466.09,-182.63 418.02,-210.31 372.11,-236.75"/>
<polygon fill="black" stroke="black" points="363.57,-241.67 369.99,-232.78 367.9,-239.17 372.24,-236.68 372.24,-236.68 372.24,-236.68 367.9,-239.17 374.48,-240.58 363.57,-241.67 363.57,-241.67"/>
</g>
<!-- enemies.Wasp -->
<g id="node8" class="node">
<title>enemies.Wasp</title>
<polygon fill="none" stroke="black" points="421,-264 421,-408 824,-408 824,-264 421,-264"/>
<text text-anchor="start" x="605.5" y="-392.8" font-family="Times New Roman,serif" font-size="14.00">Wasp</text>
<polyline fill="none" stroke="black" points="421,-385 824,-385"/>
<text text-anchor="start" x="575" y="-369.8" font-family="Times New Roman,serif" font-size="14.00">attack_range : int</text>
<text text-anchor="start" x="575" y="-354.8" font-family="Times New Roman,serif" font-size="14.00">behavior</text>
<text text-anchor="start" x="575" y="-339.8" font-family="Times New Roman,serif" font-size="14.00">health : int</text>
<text text-anchor="start" x="575" y="-324.8" font-family="Times New Roman,serif" font-size="14.00">speed : int</text>
<text text-anchor="start" x="575" y="-309.8" font-family="Times New Roman,serif" font-size="14.00">weapon</text>
<polyline fill="none" stroke="black" points="421,-302 824,-302"/>
<text text-anchor="start" x="429" y="-286.8" font-family="Times New Roman,serif" font-size="14.00">__init__(collision_sprites, damageable_sprites: List, pos, map, scale)</text>
<text text-anchor="start" x="429" y="-271.8" font-family="Times New Roman,serif" font-size="14.00">attack()</text>
</g>
<!-- behavior.ChaseBehavior&#45;&gt;enemies.Wasp -->
<g id="edge8" class="edge">
<title>behavior.ChaseBehavior&#45;&gt;enemies.Wasp</title>
<path fill="none" stroke="black" d="M608.08,-159.24C610.42,-187.86 613.33,-223.24 615.91,-254.73"/>
<polygon fill="black" stroke="black" points="616.7,-264.37 611.4,-254.77 616.29,-259.39 615.89,-254.4 615.89,-254.4 615.89,-254.4 616.29,-259.39 620.37,-254.04 616.7,-264.37 616.7,-264.37"/>
</g>
<!-- behavior.IdleBehavior -->
<g id="node3" class="node">
<title>behavior.IdleBehavior</title>
<polygon fill="none" stroke="black" points="771.5,-60.5 771.5,-144.5 1071.5,-144.5 1071.5,-60.5 771.5,-60.5"/>
<text text-anchor="start" x="886" y="-129.3" font-family="Times New Roman,serif" font-size="14.00">IdleBehavior</text>
<polyline fill="none" stroke="black" points="771.5,-121.5 1071.5,-121.5"/>
<polyline fill="none" stroke="black" points="771.5,-98.5 1071.5,-98.5"/>
<text text-anchor="start" x="779.5" y="-83.3" font-family="Times New Roman,serif" font-size="14.00">__init__(enemy)</text>
<text text-anchor="start" x="779.5" y="-68.3" font-family="Times New Roman,serif" font-size="14.00">get_goal(player_pos: Tuple[int, int]): Tuple[int, int]</text>
</g>
<!-- behavior.IdleBehavior&#45;&gt;behavior.Behavior -->
<g id="edge2" class="edge">
<title>behavior.IdleBehavior&#45;&gt;behavior.Behavior</title>
<path fill="none" stroke="black" d="M934.03,-144.35C944.57,-178.72 959.84,-228.51 972.13,-268.6"/>
<polygon fill="none" stroke="black" points="968.71,-269.37 974.99,-277.91 975.4,-267.32 968.71,-269.37"/>
</g>
<!-- behavior.PatrolBehavior -->
<g id="node4" class="node">
<title>behavior.PatrolBehavior</title>
<polygon fill="none" stroke="black" points="1090,-0.5 1090,-204.5 1745,-204.5 1745,-0.5 1090,-0.5"/>
<text text-anchor="start" x="1376" y="-189.3" font-family="Times New Roman,serif" font-size="14.00">PatrolBehavior</text>
<polyline fill="none" stroke="black" points="1090,-181.5 1745,-181.5"/>
<text text-anchor="start" x="1322" y="-166.3" font-family="Times New Roman,serif" font-size="14.00">attack_range : int</text>
<text text-anchor="start" x="1322" y="-151.3" font-family="Times New Roman,serif" font-size="14.00">current_patrol_point : int</text>
<text text-anchor="start" x="1322" y="-136.3" font-family="Times New Roman,serif" font-size="14.00">follow_range : int</text>
<text text-anchor="start" x="1322" y="-121.3" font-family="Times New Roman,serif" font-size="14.00">last_patrolled_time : int</text>
<text text-anchor="start" x="1322" y="-106.3" font-family="Times New Roman,serif" font-size="14.00">max_patrol_distance : int</text>
<text text-anchor="start" x="1322" y="-91.3" font-family="Times New Roman,serif" font-size="14.00">patrol_points : List[Tuple[int, int]]</text>
<text text-anchor="start" x="1322" y="-76.3" font-family="Times New Roman,serif" font-size="14.00">patrol_time : int</text>
<polyline fill="none" stroke="black" points="1090,-68.5 1745,-68.5"/>
<text text-anchor="start" x="1098" y="-53.3" font-family="Times New Roman,serif" font-size="14.00">__init__(enemy, patrol_points: List[Tuple[int, int]], attack_range, follow_range, max_patrol_distance, patrol_time)</text>
<text text-anchor="start" x="1098" y="-38.3" font-family="Times New Roman,serif" font-size="14.00">chase(player_pos, orientation)</text>
<text text-anchor="start" x="1098" y="-23.3" font-family="Times New Roman,serif" font-size="14.00">get_goal(player_pos: Tuple[int, int]): Tuple[int, int]</text>
<text text-anchor="start" x="1098" y="-8.3" font-family="Times New Roman,serif" font-size="14.00">patrol()</text>
</g>
<!-- behavior.PatrolBehavior&#45;&gt;behavior.Behavior -->
<g id="edge3" class="edge">
<title>behavior.PatrolBehavior&#45;&gt;behavior.Behavior</title>
<path fill="none" stroke="black" d="M1232.33,-204.37C1188.92,-228.01 1143.96,-252.5 1104.87,-273.79"/>
<polygon fill="none" stroke="black" points="1103.5,-270.55 1096.39,-278.41 1106.85,-276.7 1103.5,-270.55"/>
</g>
<!-- enemies.Minotaur -->
<g id="node7" class="node">
<title>enemies.Minotaur</title>
<polygon fill="none" stroke="black" points="1198,-249 1198,-423 1601,-423 1601,-249 1198,-249"/>
<text text-anchor="start" x="1374" y="-407.8" font-family="Times New Roman,serif" font-size="14.00">Minotaur</text>
<polyline fill="none" stroke="black" points="1198,-400 1601,-400"/>
<text text-anchor="start" x="1352" y="-384.8" font-family="Times New Roman,serif" font-size="14.00">attack_range : int</text>
<text text-anchor="start" x="1352" y="-369.8" font-family="Times New Roman,serif" font-size="14.00">behavior</text>
<text text-anchor="start" x="1352" y="-354.8" font-family="Times New Roman,serif" font-size="14.00">health : int</text>
<text text-anchor="start" x="1352" y="-339.8" font-family="Times New Roman,serif" font-size="14.00">image_offset</text>
<text text-anchor="start" x="1352" y="-324.8" font-family="Times New Roman,serif" font-size="14.00">speed : int</text>
<text text-anchor="start" x="1352" y="-309.8" font-family="Times New Roman,serif" font-size="14.00">weapon</text>
<polyline fill="none" stroke="black" points="1198,-302 1601,-302"/>
<text text-anchor="start" x="1206" y="-286.8" font-family="Times New Roman,serif" font-size="14.00">__init__(collision_sprites, damageable_sprites: List, pos, map, scale)</text>
<text text-anchor="start" x="1206" y="-271.8" font-family="Times New Roman,serif" font-size="14.00">attack()</text>
<text text-anchor="start" x="1206" y="-256.8" font-family="Times New Roman,serif" font-size="14.00">update(player_pos, clock)</text>
</g>
<!-- behavior.PatrolBehavior&#45;&gt;enemies.Minotaur -->
<g id="edge10" class="edge">
<title>behavior.PatrolBehavior&#45;&gt;enemies.Minotaur</title>
<path fill="none" stroke="black" d="M1409.66,-204.37C1408.75,-216.07 1407.82,-227.99 1406.92,-239.62"/>
<polygon fill="black" stroke="black" points="1406.16,-249.31 1402.45,-239 1406.55,-244.33 1406.94,-239.34 1406.94,-239.34 1406.94,-239.34 1406.55,-244.33 1411.42,-239.69 1406.16,-249.31 1406.16,-249.31"/>
</g>
<!-- enemies.Ghost&#45;&gt;enemy.Enemy -->
<g id="edge6" class="edge">
<title>enemies.Ghost&#45;&gt;enemy.Enemy</title>
<path fill="none" stroke="black" d="M400.77,-430.39C450.49,-453.69 504.45,-478.98 556.33,-503.29"/>
<polygon fill="none" stroke="black" points="554.76,-506.42 565.3,-507.5 557.73,-500.08 554.76,-506.42"/>
</g>
<!-- enemies.Minotaur&#45;&gt;enemy.Enemy -->
<g id="edge5" class="edge">
<title>enemies.Minotaur&#45;&gt;enemy.Enemy</title>
<path fill="none" stroke="black" d="M1220.27,-422.98C1169.33,-447.42 1112.9,-474.49 1058.54,-500.57"/>
<polygon fill="none" stroke="black" points="1057.28,-497.29 1049.78,-504.77 1060.31,-503.6 1057.28,-497.29"/>
</g>
<!-- enemies.Wasp&#45;&gt;enemy.Enemy -->
<g id="edge4" class="edge">
<title>enemies.Wasp&#45;&gt;enemy.Enemy</title>
<path fill="none" stroke="black" d="M668.71,-407.93C678.91,-423.6 690.13,-440.83 701.64,-458.48"/>
<polygon fill="none" stroke="black" points="698.46,-460.02 706.85,-466.48 704.32,-456.19 698.46,-460.02"/>
</g>
</g>
</svg>
