<?xml version="1.0" encoding="UTF-8" standalone="no"?>
<!DOCTYPE svg PUBLIC "-//W3C//DTD SVG 1.1//EN"
 "http://www.w3.org/Graphics/SVG/1.1/DTD/svg11.dtd">
<!-- Generated by graphviz version 7.1.0 (20230121.1956)
 -->
<!-- Title: Behavior Pages: 1 -->
<svg width="1798pt" height="439pt"
 viewBox="0.00 0.00 1798.00 439.00" xmlns="http://www.w3.org/2000/svg" xmlns:xlink="http://www.w3.org/1999/xlink">
<g id="graph0" class="graph" transform="scale(1 1) rotate(0) translate(4 435)">
<title>Behavior</title>
<polygon fill="white" stroke="none" points="-4,4 -4,-435 1794,-435 1794,4 -4,4"/>
<!-- behavior.Behavior -->
<g id="node1" class="node">
<title>behavior.Behavior</title>
<polygon fill="none" stroke="black" points="842.5,-279 842.5,-393 1142.5,-393 1142.5,-279 842.5,-279"/>
<text text-anchor="start" x="967.5" y="-377.8" font-family="Times New Roman,serif" font-size="14.00">Behavior</text>
<polyline fill="none" stroke="black" points="842.5,-370 1142.5,-370"/>
<text text-anchor="start" x="974" y="-354.8" font-family="Times New Roman,serif" font-size="14.00">enemy</text>
<polyline fill="none" stroke="black" points="842.5,-347 1142.5,-347"/>
<text text-anchor="start" x="850.5" y="-331.8" font-family="Times New Roman,serif" font-size="14.00">__init__(enemy)</text>
<text text-anchor="start" x="850.5" y="-316.8" font-family="Times New Roman,serif" font-size="14.00">attack(player_pos, orientation)</text>
<text text-anchor="start" x="850.5" y="-301.8" font-family="Times New Roman,serif" font-size="14.00">get_goal(player_pos: Tuple[int, int]): Tuple[int, int]</text>
<text text-anchor="start" x="850.5" y="-286.8" font-family="Times New Roman,serif" font-size="14.00">get_orientation(x_dist, y_dist)</text>
</g>
<!-- behavior.ChaseBehavior -->
<g id="node2" class="node">
<title>behavior.ChaseBehavior</title>
<polygon fill="none" stroke="black" points="472.5,-45.5 472.5,-159.5 772.5,-159.5 772.5,-45.5 472.5,-45.5"/>
<text text-anchor="start" x="580" y="-144.3" font-family="Times New Roman,serif" font-size="14.00">ChaseBehavior</text>
<polyline fill="none" stroke="black" points="472.5,-136.5 772.5,-136.5"/>
<text text-anchor="start" x="574" y="-121.3" font-family="Times New Roman,serif" font-size="14.00">attack_range : int</text>
<text text-anchor="start" x="574" y="-106.3" font-family="Times New Roman,serif" font-size="14.00">follow_range : int</text>
<polyline fill="none" stroke="black" points="472.5,-98.5 772.5,-98.5"/>
<text text-anchor="start" x="480.5" y="-83.3" font-family="Times New Roman,serif" font-size="14.00">__init__(enemy, attack_range, follow_range)</text>
<text text-anchor="start" x="480.5" y="-68.3" font-family="Times New Roman,serif" font-size="14.00">chase(player_pos, orientation)</text>
<text text-anchor="start" x="480.5" y="-53.3" font-family="Times New Roman,serif" font-size="14.00">get_goal(player_pos: Tuple[int, int]): Tuple[int, int]</text>
</g>
<!-- behavior.ChaseBehavior&#45;&gt;behavior.Behavior -->
<g id="edge1" class="edge">
<title>behavior.ChaseBehavior&#45;&gt;behavior.Behavior</title>
<path fill="none" stroke="black" d="M711.6,-159.24C766.48,-193.58 836.92,-237.66 893.54,-273.08"/>
<polygon fill="none" stroke="black" points="891.6,-276 901.93,-278.33 895.31,-270.06 891.6,-276"/>
</g>
<!-- enemies.Ghost -->
<g id="node5" class="node">
<title>enemies.Ghost</title>
<polygon fill="none" stroke="black" points="0,-241.5 0,-430.5 403,-430.5 403,-241.5 0,-241.5"/>
<text text-anchor="start" x="184" y="-415.3" font-family="Times New Roman,serif" font-size="14.00">Ghost</text>
<polyline fill="none" stroke="black" points="0,-407.5 403,-407.5"/>
<text text-anchor="start" x="149.5" y="-392.3" font-family="Times New Roman,serif" font-size="14.00">attack_range : int</text>
<text text-anchor="start" x="149.5" y="-377.3" font-family="Times New Roman,serif" font-size="14.00">behavior</text>
<text text-anchor="start" x="149.5" y="-362.3" font-family="Times New Roman,serif" font-size="14.00">health : int</text>
<text text-anchor="start" x="149.5" y="-347.3" font-family="Times New Roman,serif" font-size="14.00">speed : float</text>
<text text-anchor="start" x="149.5" y="-332.3" font-family="Times New Roman,serif" font-size="14.00">teleport_index : int</text>
<text text-anchor="start" x="149.5" y="-317.3" font-family="Times New Roman,serif" font-size="14.00">teleported : bool</text>
<text text-anchor="start" x="149.5" y="-302.3" font-family="Times New Roman,serif" font-size="14.00">weapon</text>
<polyline fill="none" stroke="black" points="0,-294.5 403,-294.5"/>
<text text-anchor="start" x="8" y="-279.3" font-family="Times New Roman,serif" font-size="14.00">__init__(collision_sprites, damageable_sprites: List, pos, map, scale)</text>
<text text-anchor="start" x="8" y="-264.3" font-family="Times New Roman,serif" font-size="14.00">attack()</text>
<text text-anchor="start" x="8" y="-249.3" font-family="Times New Roman,serif" font-size="14.00">update(player_pos, clock)</text>
</g>
<!-- behavior.ChaseBehavior&#45;&gt;enemies.Ghost -->
<g id="edge5" class="edge">
<title>behavior.ChaseBehavior&#45;&gt;enemies.Ghost</title>
<path fill="none" stroke="black" d="M520.86,-159.39C478.5,-182.68 428.04,-210.43 379.88,-236.91"/>
<polygon fill="black" stroke="black" points="371.23,-241.67 377.82,-232.91 375.61,-239.26 379.99,-236.85 379.99,-236.85 379.99,-236.85 375.61,-239.26 382.16,-240.79 371.23,-241.67 371.23,-241.67"/>
</g>
<!-- enemies.Wasp -->
<g id="node7" class="node">
<title>enemies.Wasp</title>
<polygon fill="none" stroke="black" points="421,-264 421,-408 824,-408 824,-264 421,-264"/>
<text text-anchor="start" x="605.5" y="-392.8" font-family="Times New Roman,serif" font-size="14.00">Wasp</text>
<polyline fill="none" stroke="black" points="421,-385 824,-385"/>
<text text-anchor="start" x="575" y="-369.8" font-family="Times New Roman,serif" font-size="14.00">attack_range : int</text>
<text text-anchor="start" x="575" y="-354.8" font-family="Times New Roman,serif" font-size="14.00">behavior</text>
<text text-anchor="start" x="575" y="-339.8" font-family="Times New Roman,serif" font-size="14.00">health : int</text>
<text text-anchor="start" x="575" y="-324.8" font-family="Times New Roman,serif" font-size="14.00">speed : int</text>
<text text-anchor="start" x="575" y="-309.8" font-family="Times New Roman,serif" font-size="14.00">weapon</text>
<polyline fill="none" stroke="black" points="421,-302 824,-302"/>
<text text-anchor="start" x="429" y="-286.8" font-family="Times New Roman,serif" font-size="14.00">__init__(collision_sprites, damageable_sprites: List, pos, map, scale)</text>
<text text-anchor="start" x="429" y="-271.8" font-family="Times New Roman,serif" font-size="14.00">attack()</text>
</g>
<!-- behavior.ChaseBehavior&#45;&gt;enemies.Wasp -->
<g id="edge4" class="edge">
<title>behavior.ChaseBehavior&#45;&gt;enemies.Wasp</title>
<path fill="none" stroke="black" d="M622.5,-159.24C622.5,-187.86 622.5,-223.24 622.5,-254.73"/>
<polygon fill="black" stroke="black" points="622.5,-264.37 618,-254.37 622.5,-259.37 622.5,-254.37 622.5,-254.37 622.5,-254.37 622.5,-259.37 627,-254.37 622.5,-264.37 622.5,-264.37"/>
</g>
<!-- behavior.IdleBehavior -->
<g id="node3" class="node">
<title>behavior.IdleBehavior</title>
<polygon fill="none" stroke="black" points="816.5,-60.5 816.5,-144.5 1116.5,-144.5 1116.5,-60.5 816.5,-60.5"/>
<text text-anchor="start" x="931" y="-129.3" font-family="Times New Roman,serif" font-size="14.00">IdleBehavior</text>
<polyline fill="none" stroke="black" points="816.5,-121.5 1116.5,-121.5"/>
<polyline fill="none" stroke="black" points="816.5,-98.5 1116.5,-98.5"/>
<text text-anchor="start" x="824.5" y="-83.3" font-family="Times New Roman,serif" font-size="14.00">__init__(enemy)</text>
<text text-anchor="start" x="824.5" y="-68.3" font-family="Times New Roman,serif" font-size="14.00">get_goal(player_pos: Tuple[int, int]): Tuple[int, int]</text>
</g>
<!-- behavior.IdleBehavior&#45;&gt;behavior.Behavior -->
<g id="edge2" class="edge">
<title>behavior.IdleBehavior&#45;&gt;behavior.Behavior</title>
<path fill="none" stroke="black" d="M971.09,-144.35C974.93,-178.57 980.49,-228.09 984.98,-268.08"/>
<polygon fill="none" stroke="black" points="981.49,-268.3 986.08,-277.85 988.44,-267.52 981.49,-268.3"/>
</g>
<!-- behavior.PatrolBehavior -->
<g id="node4" class="node">
<title>behavior.PatrolBehavior</title>
<polygon fill="none" stroke="black" points="1135,-0.5 1135,-204.5 1790,-204.5 1790,-0.5 1135,-0.5"/>
<text text-anchor="start" x="1421" y="-189.3" font-family="Times New Roman,serif" font-size="14.00">PatrolBehavior</text>
<polyline fill="none" stroke="black" points="1135,-181.5 1790,-181.5"/>
<text text-anchor="start" x="1367" y="-166.3" font-family="Times New Roman,serif" font-size="14.00">attack_range : int</text>
<text text-anchor="start" x="1367" y="-151.3" font-family="Times New Roman,serif" font-size="14.00">current_patrol_point : int</text>
<text text-anchor="start" x="1367" y="-136.3" font-family="Times New Roman,serif" font-size="14.00">follow_range : int</text>
<text text-anchor="start" x="1367" y="-121.3" font-family="Times New Roman,serif" font-size="14.00">last_patrolled_time : int</text>
<text text-anchor="start" x="1367" y="-106.3" font-family="Times New Roman,serif" font-size="14.00">max_patrol_distance : int</text>
<text text-anchor="start" x="1367" y="-91.3" font-family="Times New Roman,serif" font-size="14.00">patrol_points : List[Tuple[int, int]]</text>
<text text-anchor="start" x="1367" y="-76.3" font-family="Times New Roman,serif" font-size="14.00">patrol_time : int</text>
<polyline fill="none" stroke="black" points="1135,-68.5 1790,-68.5"/>
<text text-anchor="start" x="1143" y="-53.3" font-family="Times New Roman,serif" font-size="14.00">__init__(enemy, patrol_points: List[Tuple[int, int]], attack_range, follow_range, max_patrol_distance, patrol_time)</text>
<text text-anchor="start" x="1143" y="-38.3" font-family="Times New Roman,serif" font-size="14.00">chase(player_pos, orientation)</text>
<text text-anchor="start" x="1143" y="-23.3" font-family="Times New Roman,serif" font-size="14.00">get_goal(player_pos: Tuple[int, int]): Tuple[int, int]</text>
<text text-anchor="start" x="1143" y="-8.3" font-family="Times New Roman,serif" font-size="14.00">patrol()</text>
</g>
<!-- behavior.PatrolBehavior&#45;&gt;behavior.Behavior -->
<g id="edge3" class="edge">
<title>behavior.PatrolBehavior&#45;&gt;behavior.Behavior</title>
<path fill="none" stroke="black" d="M1257.72,-204.37C1209.51,-228.11 1159.58,-252.7 1116.22,-274.06"/>
<polygon fill="none" stroke="black" points="1114.7,-270.91 1107.28,-278.47 1117.8,-277.19 1114.7,-270.91"/>
</g>
<!-- enemies.Minotaur -->
<g id="node6" class="node">
<title>enemies.Minotaur</title>
<polygon fill="none" stroke="black" points="1261,-249 1261,-423 1664,-423 1664,-249 1261,-249"/>
<text text-anchor="start" x="1437" y="-407.8" font-family="Times New Roman,serif" font-size="14.00">Minotaur</text>
<polyline fill="none" stroke="black" points="1261,-400 1664,-400"/>
<text text-anchor="start" x="1415" y="-384.8" font-family="Times New Roman,serif" font-size="14.00">attack_range : int</text>
<text text-anchor="start" x="1415" y="-369.8" font-family="Times New Roman,serif" font-size="14.00">behavior</text>
<text text-anchor="start" x="1415" y="-354.8" font-family="Times New Roman,serif" font-size="14.00">health : int</text>
<text text-anchor="start" x="1415" y="-339.8" font-family="Times New Roman,serif" font-size="14.00">image_offset</text>
<text text-anchor="start" x="1415" y="-324.8" font-family="Times New Roman,serif" font-size="14.00">speed : int</text>
<text text-anchor="start" x="1415" y="-309.8" font-family="Times New Roman,serif" font-size="14.00">weapon</text>
<polyline fill="none" stroke="black" points="1261,-302 1664,-302"/>
<text text-anchor="start" x="1269" y="-286.8" font-family="Times New Roman,serif" font-size="14.00">__init__(collision_sprites, damageable_sprites: List, pos, map, scale)</text>
<text text-anchor="start" x="1269" y="-271.8" font-family="Times New Roman,serif" font-size="14.00">attack()</text>
<text text-anchor="start" x="1269" y="-256.8" font-family="Times New Roman,serif" font-size="14.00">update(player_pos, clock)</text>
</g>
<!-- behavior.PatrolBehavior&#45;&gt;enemies.Minotaur -->
<g id="edge6" class="edge">
<title>behavior.PatrolBehavior&#45;&gt;enemies.Minotaur</title>
<path fill="none" stroke="black" d="M1462.5,-204.37C1462.5,-216.07 1462.5,-227.99 1462.5,-239.62"/>
<polygon fill="black" stroke="black" points="1462.5,-249.31 1458,-239.31 1462.5,-244.31 1462.5,-239.31 1462.5,-239.31 1462.5,-239.31 1462.5,-244.31 1467,-239.31 1462.5,-249.31 1462.5,-249.31"/>
</g>
</g>
</svg>
