<?xml version="1.0" encoding="UTF-8" standalone="no"?>
<!DOCTYPE svg PUBLIC "-//W3C//DTD SVG 1.1//EN"
 "http://www.w3.org/Graphics/SVG/1.1/DTD/svg11.dtd">
<!-- Generated by graphviz version 7.1.0 (20230121.1956)
 -->
<!-- Title: classes Pages: 1 -->
<svg width="1288pt" height="748pt"
 viewBox="0.00 0.00 1287.50 748.00" xmlns="http://www.w3.org/2000/svg" xmlns:xlink="http://www.w3.org/1999/xlink">
<g id="graph0" class="graph" transform="scale(1 1) rotate(0) translate(4 744)">
<title>classes</title>
<polygon fill="white" stroke="none" points="-4,4 -4,-744 1283.5,-744 1283.5,4 -4,4"/>
<!-- level_generator.LevelGenerator -->
<g id="node1" class="node">
<title>level_generator.LevelGenerator</title>
<polygon fill="none" stroke="black" points="110.5,-430.5 110.5,-739.5 1279.5,-739.5 1279.5,-430.5 110.5,-430.5"/>
<text text-anchor="start" x="652" y="-724.3" font-family="Times New Roman,serif" font-size="14.00">LevelGenerator</text>
<polyline fill="none" stroke="black" points="110.5,-716.5 1279.5,-716.5"/>
<text text-anchor="start" x="615" y="-701.3" font-family="Times New Roman,serif" font-size="14.00">chunk_generator</text>
<text text-anchor="start" x="615" y="-686.3" font-family="Times New Roman,serif" font-size="14.00">chunk_size</text>
<text text-anchor="start" x="615" y="-671.3" font-family="Times New Roman,serif" font-size="14.00">enemy_pool : NoneType</text>
<text text-anchor="start" x="615" y="-656.3" font-family="Times New Roman,serif" font-size="14.00">map : ndarray</text>
<text text-anchor="start" x="615" y="-641.3" font-family="Times New Roman,serif" font-size="14.00">objective_items_pool : list</text>
<text text-anchor="start" x="615" y="-626.3" font-family="Times New Roman,serif" font-size="14.00">poi_items_pool : list</text>
<text text-anchor="start" x="615" y="-611.3" font-family="Times New Roman,serif" font-size="14.00">scale : int</text>
<text text-anchor="start" x="615" y="-596.3" font-family="Times New Roman,serif" font-size="14.00">scaling_factors : tuple</text>
<text text-anchor="start" x="615" y="-581.3" font-family="Times New Roman,serif" font-size="14.00">size : tuple[int, int]</text>
<text text-anchor="start" x="615" y="-566.3" font-family="Times New Roman,serif" font-size="14.00">size_x</text>
<text text-anchor="start" x="615" y="-551.3" font-family="Times New Roman,serif" font-size="14.00">size_y</text>
<text text-anchor="start" x="615" y="-536.3" font-family="Times New Roman,serif" font-size="14.00">sprite_size</text>
<text text-anchor="start" x="615" y="-521.3" font-family="Times New Roman,serif" font-size="14.00">surface_mapper : NoneType</text>
<polyline fill="none" stroke="black" points="110.5,-513.5 1279.5,-513.5"/>
<text text-anchor="start" x="118.5" y="-498.3" font-family="Times New Roman,serif" font-size="14.00">__generate_map(size: tuple[int, int], chunk_size, n_poi, clear_radius_from_poi, noise_resolution, lower_threshold, upper_threshold, enemy_pool)</text>
<text text-anchor="start" x="118.5" y="-483.3" font-family="Times New Roman,serif" font-size="14.00">__init__(size: tuple[int, int], sprite_size, chunk_size, scale)</text>
<text text-anchor="start" x="118.5" y="-468.3" font-family="Times New Roman,serif" font-size="14.00">generate_map(n_poi, clear_radius_from_poi, noise_resolution, lower_threshold, upper_threshold, surface_mapper_cls): tuple[np.matrix, tuple[int, int], Surface, list[Surface], list[Enemy], list[Item], list[Item]]</text>
<text text-anchor="start" x="118.5" y="-453.3" font-family="Times New Roman,serif" font-size="14.00">place_items(scale, chunk_size, tiles, items_pool, n_items)</text>
<text text-anchor="start" x="118.5" y="-438.3" font-family="Times New Roman,serif" font-size="14.00">populate_area(scale, chunk_size, tiles, enemy_pool, n_enemies)</text>
</g>
<!-- level_generator.Level_1_surface -->
<g id="node2" class="node">
<title>level_generator.Level_1_surface</title>
<polygon fill="none" stroke="black" points="114.5,-0.5 114.5,-122.5 287.5,-122.5 287.5,-0.5 114.5,-0.5"/>
<text text-anchor="start" x="154.5" y="-107.3" font-family="Times New Roman,serif" font-size="14.00">Level_1_surface</text>
<polyline fill="none" stroke="black" points="114.5,-99.5 287.5,-99.5"/>
<text text-anchor="start" x="132" y="-84.3" font-family="Times New Roman,serif" font-size="14.00">ground_sprite_pool : list</text>
<text text-anchor="start" x="132" y="-69.3" font-family="Times New Roman,serif" font-size="14.00">obst1_dict : dict</text>
<text text-anchor="start" x="132" y="-54.3" font-family="Times New Roman,serif" font-size="14.00">obst2_dict : dict</text>
<polyline fill="none" stroke="black" points="114.5,-46.5 287.5,-46.5"/>
<text text-anchor="start" x="199" y="-31.3" font-family="Times New Roman,serif" font-size="14.00"> </text>
<polyline fill="none" stroke="black" points="114.5,-23.5 287.5,-23.5"/>
<text text-anchor="start" x="122.5" y="-8.3" font-family="Times New Roman,serif" font-size="14.00">__init__(map_matrix, scale)</text>
</g>
<!-- level_generator.SurfaceMapper -->
<g id="node5" class="node">
<title>level_generator.SurfaceMapper</title>
<polygon fill="none" stroke="black" points="0,-174.5 0,-378.5 784,-378.5 784,-174.5 0,-174.5"/>
<text text-anchor="start" x="348.5" y="-363.3" font-family="Times New Roman,serif" font-size="14.00">SurfaceMapper</text>
<polyline fill="none" stroke="black" points="0,-355.5 784,-355.5"/>
<text text-anchor="start" x="313.5" y="-340.3" font-family="Times New Roman,serif" font-size="14.00">ground_sprite_pool : list</text>
<text text-anchor="start" x="313.5" y="-325.3" font-family="Times New Roman,serif" font-size="14.00">map_matrix</text>
<text text-anchor="start" x="313.5" y="-310.3" font-family="Times New Roman,serif" font-size="14.00">obst1_dict : dict</text>
<text text-anchor="start" x="313.5" y="-295.3" font-family="Times New Roman,serif" font-size="14.00">obst2_dict : dict</text>
<text text-anchor="start" x="313.5" y="-280.3" font-family="Times New Roman,serif" font-size="14.00">scale : int</text>
<text text-anchor="start" x="313.5" y="-265.3" font-family="Times New Roman,serif" font-size="14.00">__init__(map_matrix, scale)</text>
<polyline fill="none" stroke="black" points="0,-257.5 784,-257.5"/>
<text text-anchor="start" x="8" y="-242.3" font-family="Times New Roman,serif" font-size="14.00">calculate_bitmask(map_matrix, map_pos)</text>
<text text-anchor="start" x="8" y="-227.3" font-family="Times New Roman,serif" font-size="14.00">draw_lines(bitmask_dict, surf_size, sprite_size, surf, line)</text>
<text text-anchor="start" x="8" y="-212.3" font-family="Times New Roman,serif" font-size="14.00">generate_map_surface(chunk_size: int, sprite_size: tuple[int, int])</text>
<text text-anchor="start" x="8" y="-197.3" font-family="Times New Roman,serif" font-size="14.00">generate_random_surf(sprite_pool: list[Surface], sprite_size: tuple[int, int], surf_size: tuple[int, int])</text>
<text text-anchor="start" x="8" y="-182.3" font-family="Times New Roman,serif" font-size="14.00">tile_bitmasking(map_matrix, map_pos: tuple[int, int], bitmask_dict: dict[str, Surface], chunk_size: tuple[int, int], sprite_size: tuple[int, int])</text>
</g>
<!-- level_generator.Level_1_surface&#45;&gt;level_generator.SurfaceMapper -->
<g id="edge1" class="edge">
<title>level_generator.Level_1_surface&#45;&gt;level_generator.SurfaceMapper</title>
<path fill="none" stroke="black" d="M254.71,-122.4C267,-136.1 280.44,-151.09 293.95,-166.15"/>
<polygon fill="none" stroke="black" points="291.16,-168.29 300.44,-173.39 296.37,-163.61 291.16,-168.29"/>
</g>
<!-- level_generator.Level_2_surface -->
<g id="node3" class="node">
<title>level_generator.Level_2_surface</title>
<polygon fill="none" stroke="black" points="305.5,-0.5 305.5,-122.5 478.5,-122.5 478.5,-0.5 305.5,-0.5"/>
<text text-anchor="start" x="345.5" y="-107.3" font-family="Times New Roman,serif" font-size="14.00">Level_2_surface</text>
<polyline fill="none" stroke="black" points="305.5,-99.5 478.5,-99.5"/>
<text text-anchor="start" x="323" y="-84.3" font-family="Times New Roman,serif" font-size="14.00">ground_sprite_pool : list</text>
<text text-anchor="start" x="323" y="-69.3" font-family="Times New Roman,serif" font-size="14.00">obst1_dict : dict</text>
<text text-anchor="start" x="323" y="-54.3" font-family="Times New Roman,serif" font-size="14.00">obst2_dict : dict</text>
<polyline fill="none" stroke="black" points="305.5,-46.5 478.5,-46.5"/>
<text text-anchor="start" x="390" y="-31.3" font-family="Times New Roman,serif" font-size="14.00"> </text>
<polyline fill="none" stroke="black" points="305.5,-23.5 478.5,-23.5"/>
<text text-anchor="start" x="313.5" y="-8.3" font-family="Times New Roman,serif" font-size="14.00">__init__(map_matrix, scale)</text>
</g>
<!-- level_generator.Level_2_surface&#45;&gt;level_generator.SurfaceMapper -->
<g id="edge2" class="edge">
<title>level_generator.Level_2_surface&#45;&gt;level_generator.SurfaceMapper</title>
<path fill="none" stroke="black" d="M392,-122.4C392,-135.22 392,-149.15 392,-163.23"/>
<polygon fill="none" stroke="black" points="388.5,-163.01 392,-173.01 395.5,-163.01 388.5,-163.01"/>
</g>
<!-- level_generator.Level_3_surface -->
<g id="node4" class="node">
<title>level_generator.Level_3_surface</title>
<polygon fill="none" stroke="black" points="496.5,-0.5 496.5,-122.5 669.5,-122.5 669.5,-0.5 496.5,-0.5"/>
<text text-anchor="start" x="536.5" y="-107.3" font-family="Times New Roman,serif" font-size="14.00">Level_3_surface</text>
<polyline fill="none" stroke="black" points="496.5,-99.5 669.5,-99.5"/>
<text text-anchor="start" x="514" y="-84.3" font-family="Times New Roman,serif" font-size="14.00">ground_sprite_pool : list</text>
<text text-anchor="start" x="514" y="-69.3" font-family="Times New Roman,serif" font-size="14.00">obst1_dict : dict</text>
<text text-anchor="start" x="514" y="-54.3" font-family="Times New Roman,serif" font-size="14.00">obst2_dict : dict</text>
<polyline fill="none" stroke="black" points="496.5,-46.5 669.5,-46.5"/>
<text text-anchor="start" x="581" y="-31.3" font-family="Times New Roman,serif" font-size="14.00"> </text>
<polyline fill="none" stroke="black" points="496.5,-23.5 669.5,-23.5"/>
<text text-anchor="start" x="504.5" y="-8.3" font-family="Times New Roman,serif" font-size="14.00">__init__(map_matrix, scale)</text>
</g>
<!-- level_generator.Level_3_surface&#45;&gt;level_generator.SurfaceMapper -->
<g id="edge3" class="edge">
<title>level_generator.Level_3_surface&#45;&gt;level_generator.SurfaceMapper</title>
<path fill="none" stroke="black" d="M529.29,-122.4C517,-136.1 503.56,-151.09 490.05,-166.15"/>
<polygon fill="none" stroke="black" points="487.63,-163.61 483.56,-173.39 492.84,-168.29 487.63,-163.61"/>
</g>
<!-- level_generator.SurfaceMapper&#45;&gt;level_generator.LevelGenerator -->
<g id="edge5" class="edge">
<title>level_generator.SurfaceMapper&#45;&gt;level_generator.LevelGenerator</title>
<path fill="none" stroke="black" d="M491.63,-378.28C505.42,-392.23 519.85,-406.83 534.4,-421.55"/>
<polygon fill="black" stroke="black" points="534.4,-421.54 541.46,-423 542.83,-430.08 535.77,-428.62 534.4,-421.54"/>
</g>
<!-- level_generator.TileEnum -->
<g id="node6" class="node">
<title>level_generator.TileEnum</title>
<polygon fill="none" stroke="black" points="688,-27 688,-96 758,-96 758,-27 688,-27"/>
<text text-anchor="start" x="696" y="-80.8" font-family="Times New Roman,serif" font-size="14.00">TileEnum</text>
<polyline fill="none" stroke="black" points="688,-73 758,-73"/>
<text text-anchor="start" x="708" y="-57.8" font-family="Times New Roman,serif" font-size="14.00">name</text>
<polyline fill="none" stroke="black" points="688,-50 758,-50"/>
<text text-anchor="start" x="721" y="-34.8" font-family="Times New Roman,serif" font-size="14.00"> </text>
</g>
<!-- generator.ChunkGenerator -->
<g id="node7" class="node">
<title>generator.ChunkGenerator</title>
<polygon fill="none" stroke="black" points="802,-159.5 802,-393.5 1194,-393.5 1194,-159.5 802,-159.5"/>
<text text-anchor="start" x="951.5" y="-378.3" font-family="Times New Roman,serif" font-size="14.00">ChunkGenerator</text>
<polyline fill="none" stroke="black" points="802,-370.5 1194,-370.5"/>
<text text-anchor="start" x="954.5" y="-355.3" font-family="Times New Roman,serif" font-size="14.00">chunk_info</text>
<text text-anchor="start" x="954.5" y="-340.3" font-family="Times New Roman,serif" font-size="14.00">chunk_size : int</text>
<text text-anchor="start" x="954.5" y="-325.3" font-family="Times New Roman,serif" font-size="14.00">chunks</text>
<text text-anchor="start" x="954.5" y="-310.3" font-family="Times New Roman,serif" font-size="14.00">m</text>
<text text-anchor="start" x="954.5" y="-295.3" font-family="Times New Roman,serif" font-size="14.00">map</text>
<text text-anchor="start" x="954.5" y="-280.3" font-family="Times New Roman,serif" font-size="14.00">n : int</text>
<text text-anchor="start" x="954.5" y="-265.3" font-family="Times New Roman,serif" font-size="14.00">spawn_point</text>
<polyline fill="none" stroke="black" points="802,-257.5 1194,-257.5"/>
<text text-anchor="start" x="810" y="-242.3" font-family="Times New Roman,serif" font-size="14.00">generate_chunk_map(map, assignable_threshold: tuple[float, float])</text>
<text text-anchor="start" x="810" y="-227.3" font-family="Times New Roman,serif" font-size="14.00">get_chunk_info()</text>
<text text-anchor="start" x="810" y="-212.3" font-family="Times New Roman,serif" font-size="14.00">map_chunk_index_to_tiles(chunk_index): list[tuple[int, int]]</text>
<text text-anchor="start" x="810" y="-197.3" font-family="Times New Roman,serif" font-size="14.00">place_spawn(): tuple[tuple[int, int], tuple[int, int]]</text>
<text text-anchor="start" x="810" y="-182.3" font-family="Times New Roman,serif" font-size="14.00">position_objectives(): list[tuple[int, int]]</text>
<text text-anchor="start" x="810" y="-167.3" font-family="Times New Roman,serif" font-size="14.00">position_poi(n, radius): list[tuple[int, int]]</text>
</g>
<!-- generator.ChunkGenerator&#45;&gt;level_generator.LevelGenerator -->
<g id="edge4" class="edge">
<title>generator.ChunkGenerator&#45;&gt;level_generator.LevelGenerator</title>
<path fill="none" stroke="black" d="M883.45,-393.37C874.3,-402.62 864.97,-412.07 855.59,-421.56"/>
<polygon fill="black" stroke="black" points="855.65,-421.49 854.28,-428.57 847.22,-430.02 848.59,-422.95 855.65,-421.49"/>
</g>
<!-- generator.GenerationException -->
<g id="node8" class="node">
<title>generator.GenerationException</title>
<polygon fill="none" stroke="black" points="776,-27 776,-96 910,-96 910,-27 776,-27"/>
<text text-anchor="start" x="784" y="-80.8" font-family="Times New Roman,serif" font-size="14.00" fill="red">GenerationException</text>
<polyline fill="none" stroke="black" points="776,-73 910,-73"/>
<polyline fill="none" stroke="black" points="776,-50 910,-50"/>
<text text-anchor="start" x="841" y="-34.8" font-family="Times New Roman,serif" font-size="14.00" fill="red"> </text>
</g>
</g>
</svg>
