<?xml version="1.0" encoding="UTF-8" standalone="no"?>
<!DOCTYPE svg PUBLIC "-//W3C//DTD SVG 1.1//EN"
 "http://www.w3.org/Graphics/SVG/1.1/DTD/svg11.dtd">
<!-- Generated by graphviz version 7.1.0 (20230121.1956)
 -->
<!-- Title: Level Pages: 1 -->
<svg width="797pt" height="1093pt"
 viewBox="0.00 0.00 797.00 1093.00" xmlns="http://www.w3.org/2000/svg" xmlns:xlink="http://www.w3.org/1999/xlink">
<g id="graph0" class="graph" transform="scale(1 1) rotate(0) translate(4 1089)">
<title>Level</title>
<polygon fill="white" stroke="none" points="-4,4 -4,-1089 793,-1089 793,4 -4,4"/>
<!-- scene.SceneInterface -->
<g id="node1" class="node">
<title>scene.SceneInterface</title>
<polygon fill="none" stroke="black" points="257.5,-918.5 257.5,-1084.5 531.5,-1084.5 531.5,-918.5 257.5,-918.5"/>
<text text-anchor="start" x="353" y="-1069.3" font-family="Times New Roman,serif" font-size="14.00">SceneInterface</text>
<polyline fill="none" stroke="black" points="257.5,-1061.5 531.5,-1061.5"/>
<polyline fill="none" stroke="black" points="257.5,-1038.5 531.5,-1038.5"/>
<text text-anchor="start" x="265.5" y="-1024.3" font-family="Times New Roman,serif" font-size="14.00">close_scene()</text>
<text text-anchor="start" x="265.5" y="-1010.3" font-family="Times New Roman,serif" font-style="italic" font-size="14.00">draw</text>
<text text-anchor="start" x="296.5" y="-1010.3" font-family="Times New Roman,serif" font-size="14.00">(screen: pg.display)</text>
<text text-anchor="start" x="265.5" y="-996.3" font-family="Times New Roman,serif" font-style="italic" font-size="14.00">get_player_data</text>
<text text-anchor="start" x="360.5" y="-996.3" font-family="Times New Roman,serif" font-size="14.00">()</text>
<text text-anchor="start" x="265.5" y="-982.3" font-family="Times New Roman,serif" font-style="italic" font-size="14.00">handle_events</text>
<text text-anchor="start" x="347.5" y="-982.3" font-family="Times New Roman,serif" font-size="14.00">(event_list: list[pg.event.Event])</text>
<text text-anchor="start" x="265.5" y="-968.3" font-family="Times New Roman,serif" font-style="italic" font-size="14.00">load_scene</text>
<text text-anchor="start" x="329.5" y="-968.3" font-family="Times New Roman,serif" font-size="14.00">()</text>
<text text-anchor="start" x="265.5" y="-954.3" font-family="Times New Roman,serif" font-style="italic" font-size="14.00">set_player_data</text>
<text text-anchor="start" x="358.5" y="-954.3" font-family="Times New Roman,serif" font-size="14.00">(data)</text>
<text text-anchor="start" x="265.5" y="-940.3" font-family="Times New Roman,serif" font-style="italic" font-size="14.00">update</text>
<text text-anchor="start" x="305.5" y="-940.3" font-family="Times New Roman,serif" font-size="14.00">()</text>
<text text-anchor="start" x="265.5" y="-926.3" font-family="Times New Roman,serif" font-style="italic" font-size="14.00">update_screen_res</text>
<text text-anchor="start" x="373.5" y="-926.3" font-family="Times New Roman,serif" font-size="14.00">()</text>
</g>
<!-- level.Level -->
<g id="node2" class="node">
<title>level.Level</title>
<polygon fill="none" stroke="black" points="250,-194.5 250,-881.5 539,-881.5 539,-194.5 250,-194.5"/>
<text text-anchor="start" x="379" y="-866.3" font-family="Times New Roman,serif" font-size="14.00">Level</text>
<polyline fill="none" stroke="black" points="250,-858.5 539,-858.5"/>
<text text-anchor="start" x="275.5" y="-843.3" font-family="Times New Roman,serif" font-size="14.00">back_sprite</text>
<text text-anchor="start" x="275.5" y="-828.3" font-family="Times New Roman,serif" font-size="14.00">chunk_size : int</text>
<text text-anchor="start" x="275.5" y="-813.3" font-family="Times New Roman,serif" font-size="14.00">clock : Clock</text>
<text text-anchor="start" x="275.5" y="-798.3" font-family="Times New Roman,serif" font-size="14.00">collision_sprites : CameraSpriteGroup</text>
<text text-anchor="start" x="275.5" y="-783.3" font-family="Times New Roman,serif" font-size="14.00">completed : bool</text>
<text text-anchor="start" x="275.5" y="-768.3" font-family="Times New Roman,serif" font-size="14.00">controller : ControllerInterface</text>
<text text-anchor="start" x="275.5" y="-753.3" font-family="Times New Roman,serif" font-size="14.00">deadScene</text>
<text text-anchor="start" x="275.5" y="-738.3" font-family="Times New Roman,serif" font-size="14.00">director : Director</text>
<text text-anchor="start" x="275.5" y="-723.3" font-family="Times New Roman,serif" font-size="14.00">enemies_amount : int</text>
<text text-anchor="start" x="275.5" y="-708.3" font-family="Times New Roman,serif" font-size="14.00">enemies_goal : int</text>
<text text-anchor="start" x="275.5" y="-693.3" font-family="Times New Roman,serif" font-size="14.00">enemies_goal_text</text>
<text text-anchor="start" x="275.5" y="-678.3" font-family="Times New Roman,serif" font-size="14.00">enemy_pool : list</text>
<text text-anchor="start" x="275.5" y="-663.3" font-family="Times New Roman,serif" font-size="14.00">enemy_sprite_group : CameraSpriteGroup</text>
<text text-anchor="start" x="275.5" y="-648.3" font-family="Times New Roman,serif" font-size="14.00">font</text>
<text text-anchor="start" x="275.5" y="-633.3" font-family="Times New Roman,serif" font-size="14.00">font : NoneType</text>
<text text-anchor="start" x="275.5" y="-618.3" font-family="Times New Roman,serif" font-size="14.00">level_size : tuple</text>
<text text-anchor="start" x="275.5" y="-603.3" font-family="Times New Roman,serif" font-size="14.00">map_grid</text>
<text text-anchor="start" x="275.5" y="-588.3" font-family="Times New Roman,serif" font-size="14.00">objective_items : list</text>
<text text-anchor="start" x="275.5" y="-573.3" font-family="Times New Roman,serif" font-size="14.00">objective_text</text>
<text text-anchor="start" x="275.5" y="-558.3" font-family="Times New Roman,serif" font-size="14.00">optional_items : list</text>
<text text-anchor="start" x="275.5" y="-543.3" font-family="Times New Roman,serif" font-size="14.00">original_enemies_amount : int</text>
<text text-anchor="start" x="275.5" y="-528.3" font-family="Times New Roman,serif" font-size="14.00">pauseMenu</text>
<text text-anchor="start" x="275.5" y="-513.3" font-family="Times New Roman,serif" font-size="14.00">player : Player</text>
<text text-anchor="start" x="275.5" y="-498.3" font-family="Times New Roman,serif" font-size="14.00">player_sprite_group : CameraSpriteGroup</text>
<text text-anchor="start" x="275.5" y="-483.3" font-family="Times New Roman,serif" font-size="14.00">rewind : bool</text>
<text text-anchor="start" x="275.5" y="-468.3" font-family="Times New Roman,serif" font-size="14.00">scale : int</text>
<text text-anchor="start" x="275.5" y="-453.3" font-family="Times New Roman,serif" font-size="14.00">scaling_factors : tuple</text>
<text text-anchor="start" x="275.5" y="-438.3" font-family="Times New Roman,serif" font-size="14.00">screen_res</text>
<text text-anchor="start" x="275.5" y="-423.3" font-family="Times New Roman,serif" font-size="14.00">sprite_size : tuple</text>
<text text-anchor="start" x="275.5" y="-408.3" font-family="Times New Roman,serif" font-size="14.00">thrown_sprites : CameraSpriteGroup</text>
<text text-anchor="start" x="275.5" y="-393.3" font-family="Times New Roman,serif" font-size="14.00">user_interface_group</text>
<text text-anchor="start" x="275.5" y="-378.3" font-family="Times New Roman,serif" font-size="14.00">visible_sprites : CameraSpriteGroup</text>
<polyline fill="none" stroke="black" points="250,-370.5 539,-370.5"/>
<text text-anchor="start" x="258" y="-356.3" font-family="Times New Roman,serif" font-size="14.00">__init__(controller, screen_res, scale, level_size)</text>
<text text-anchor="start" x="258" y="-342.3" font-family="Times New Roman,serif" font-style="italic" font-size="14.00">_generate</text>
<text text-anchor="start" x="316" y="-342.3" font-family="Times New Roman,serif" font-size="14.00">(levelGenerator)</text>
<text text-anchor="start" x="258" y="-328.3" font-family="Times New Roman,serif" font-size="14.00">check_pass_condition()</text>
<text text-anchor="start" x="258" y="-314.3" font-family="Times New Roman,serif" font-size="14.00">draw(screen)</text>
<text text-anchor="start" x="258" y="-300.3" font-family="Times New Roman,serif" font-size="14.00">get_damagable_sprites()</text>
<text text-anchor="start" x="258" y="-286.3" font-family="Times New Roman,serif" font-size="14.00">get_player_data()</text>
<text text-anchor="start" x="258" y="-272.3" font-family="Times New Roman,serif" font-size="14.00">handle_events(event_list)</text>
<text text-anchor="start" x="258" y="-258.3" font-family="Times New Roman,serif" font-size="14.00">load_scene()</text>
<text text-anchor="start" x="258" y="-244.3" font-family="Times New Roman,serif" font-size="14.00">set_player_data(player_data)</text>
<text text-anchor="start" x="258" y="-230.3" font-family="Times New Roman,serif" font-size="14.00">update()</text>
<text text-anchor="start" x="258" y="-216.3" font-family="Times New Roman,serif" font-size="14.00">update_controller(controller)</text>
<text text-anchor="start" x="258" y="-202.3" font-family="Times New Roman,serif" font-size="14.00">update_screen_res(screen: pg.Surface)</text>
</g>
<!-- level.Level&#45;&gt;scene.SceneInterface -->
<g id="edge7" class="edge">
<title>level.Level&#45;&gt;scene.SceneInterface</title>
<path fill="none" stroke="black" stroke-dasharray="5,2" d="M394.5,-881.35C394.5,-890.3 394.5,-898.96 394.5,-907.25"/>
<polygon fill="none" stroke="black" points="391,-907.19 394.5,-917.19 398,-907.19 391,-907.19"/>
</g>
<!-- level.Level_1 -->
<g id="node3" class="node">
<title>level.Level_1</title>
<polygon fill="none" stroke="black" points="0,-73.5 0,-157.5 251,-157.5 251,-73.5 0,-73.5"/>
<text text-anchor="start" x="103" y="-142.3" font-family="Times New Roman,serif" font-size="14.00">Level_1</text>
<polyline fill="none" stroke="black" points="0,-134.5 251,-134.5"/>
<text text-anchor="start" x="56.5" y="-119.3" font-family="Times New Roman,serif" font-size="14.00">enemy_pool : list</text>
<text text-anchor="start" x="56.5" y="-104.3" font-family="Times New Roman,serif" font-size="14.00">surface : SurfaceMapper</text>
<polyline fill="none" stroke="black" points="0,-96.5 251,-96.5"/>
<text text-anchor="start" x="8" y="-81.3" font-family="Times New Roman,serif" font-size="14.00">_generate(levelGenerator: LevelGenerator)</text>
</g>
<!-- level.Level_1&#45;&gt;level.Level -->
<g id="edge1" class="edge">
<title>level.Level_1&#45;&gt;level.Level</title>
<path fill="none" stroke="black" d="M151.54,-157.2C173.96,-192.25 208.28,-245.9 244.13,-301.94"/>
<polygon fill="none" stroke="black" points="240.98,-303.51 249.32,-310.05 246.87,-299.74 240.98,-303.51"/>
</g>
<!-- level.Level_2 -->
<g id="node4" class="node">
<title>level.Level_2</title>
<polygon fill="none" stroke="black" points="269,-73.5 269,-157.5 520,-157.5 520,-73.5 269,-73.5"/>
<text text-anchor="start" x="372" y="-142.3" font-family="Times New Roman,serif" font-size="14.00">Level_2</text>
<polyline fill="none" stroke="black" points="269,-134.5 520,-134.5"/>
<text text-anchor="start" x="325.5" y="-119.3" font-family="Times New Roman,serif" font-size="14.00">enemy_pool : list</text>
<text text-anchor="start" x="325.5" y="-104.3" font-family="Times New Roman,serif" font-size="14.00">surface : SurfaceMapper</text>
<polyline fill="none" stroke="black" points="269,-96.5 520,-96.5"/>
<text text-anchor="start" x="277" y="-81.3" font-family="Times New Roman,serif" font-size="14.00">_generate(levelGenerator: LevelGenerator)</text>
</g>
<!-- level.Level_2&#45;&gt;level.Level -->
<g id="edge2" class="edge">
<title>level.Level_2&#45;&gt;level.Level</title>
<path fill="none" stroke="black" d="M394.5,-157.2C394.5,-164.98 394.5,-173.67 394.5,-183.11"/>
<polygon fill="none" stroke="black" points="391,-183 394.5,-193 398,-183 391,-183"/>
</g>
<!-- level.Level_3 -->
<g id="node5" class="node">
<title>level.Level_3</title>
<polygon fill="none" stroke="black" points="538,-73.5 538,-157.5 789,-157.5 789,-73.5 538,-73.5"/>
<text text-anchor="start" x="641" y="-142.3" font-family="Times New Roman,serif" font-size="14.00">Level_3</text>
<polyline fill="none" stroke="black" points="538,-134.5 789,-134.5"/>
<text text-anchor="start" x="594.5" y="-119.3" font-family="Times New Roman,serif" font-size="14.00">enemy_pool : list</text>
<text text-anchor="start" x="594.5" y="-104.3" font-family="Times New Roman,serif" font-size="14.00">surface : SurfaceMapper</text>
<polyline fill="none" stroke="black" points="538,-96.5 789,-96.5"/>
<text text-anchor="start" x="546" y="-81.3" font-family="Times New Roman,serif" font-size="14.00">_generate(levelGenerator: LevelGenerator)</text>
</g>
<!-- level.Level_3&#45;&gt;level.Level -->
<g id="edge3" class="edge">
<title>level.Level_3&#45;&gt;level.Level</title>
<path fill="none" stroke="black" d="M637.46,-157.2C615.04,-192.25 580.72,-245.9 544.87,-301.94"/>
<polygon fill="none" stroke="black" points="542.13,-299.74 539.68,-310.05 548.02,-303.51 542.13,-299.74"/>
</g>
<!-- level_generator.Level_1_surface -->
<g id="node6" class="node">
<title>level_generator.Level_1_surface</title>
<polygon fill="none" stroke="black" points="71,-0.5 71,-36.5 180,-36.5 180,-0.5 71,-0.5"/>
<text text-anchor="start" x="79" y="-14.8" font-family="Times New Roman,serif" font-size="14.00">Level_1_surface</text>
</g>
<!-- level_generator.Level_1_surface&#45;&gt;level.Level_1 -->
<g id="edge4" class="edge">
<title>level_generator.Level_1_surface&#45;&gt;level.Level_1</title>
<path fill="none" stroke="black" d="M125.5,-36.48C125.5,-44.25 125.5,-53.9 125.5,-63.74"/>
<polygon fill="black" stroke="black" points="125.5,-73.58 121,-63.58 125.5,-68.58 125.5,-63.58 125.5,-63.58 125.5,-63.58 125.5,-68.58 130,-63.58 125.5,-73.58 125.5,-73.58"/>
</g>
<!-- level_generator.Level_2_surface -->
<g id="node7" class="node">
<title>level_generator.Level_2_surface</title>
<polygon fill="none" stroke="black" points="340,-0.5 340,-36.5 449,-36.5 449,-0.5 340,-0.5"/>
<text text-anchor="start" x="348" y="-14.8" font-family="Times New Roman,serif" font-size="14.00">Level_2_surface</text>
</g>
<!-- level_generator.Level_2_surface&#45;&gt;level.Level_2 -->
<g id="edge5" class="edge">
<title>level_generator.Level_2_surface&#45;&gt;level.Level_2</title>
<path fill="none" stroke="black" d="M394.5,-36.48C394.5,-44.25 394.5,-53.9 394.5,-63.74"/>
<polygon fill="black" stroke="black" points="394.5,-73.58 390,-63.58 394.5,-68.58 394.5,-63.58 394.5,-63.58 394.5,-63.58 394.5,-68.58 399,-63.58 394.5,-73.58 394.5,-73.58"/>
</g>
<!-- level_generator.Level_3_surface -->
<g id="node8" class="node">
<title>level_generator.Level_3_surface</title>
<polygon fill="none" stroke="black" points="609,-0.5 609,-36.5 718,-36.5 718,-0.5 609,-0.5"/>
<text text-anchor="start" x="617" y="-14.8" font-family="Times New Roman,serif" font-size="14.00">Level_3_surface</text>
</g>
<!-- level_generator.Level_3_surface&#45;&gt;level.Level_3 -->
<g id="edge6" class="edge">
<title>level_generator.Level_3_surface&#45;&gt;level.Level_3</title>
<path fill="none" stroke="black" d="M663.5,-36.48C663.5,-44.25 663.5,-53.9 663.5,-63.74"/>
<polygon fill="black" stroke="black" points="663.5,-73.58 659,-63.58 663.5,-68.58 663.5,-63.58 663.5,-63.58 663.5,-63.58 663.5,-68.58 668,-63.58 663.5,-73.58 663.5,-73.58"/>
</g>
</g>
</svg>
